<?xml version="1.0" standalone="no"?>
<!DOCTYPE svg PUBLIC "-//W3C//DTD SVG 1.1//EN" "http://www.w3.org/Graphics/SVG/1.1/DTD/svg11.dtd" >
<svg xmlns="http://www.w3.org/2000/svg">
<metadata></metadata>
<defs>
<font id="libbyhandmedium" horiz-adv-x="858" >
<font-face units-per-em="2048" ascent="1638" descent="-410" />
<missing-glyph horiz-adv-x="614" />
<glyph horiz-adv-x="2048" />
<glyph horiz-adv-x="2048" />
<glyph unicode="&#xd;" horiz-adv-x="681" />
<glyph unicode=" "  horiz-adv-x="614" />
<glyph unicode="&#x09;" horiz-adv-x="614" />
<glyph unicode="&#xa0;" horiz-adv-x="614" />
<glyph unicode="!" horiz-adv-x="557" d="M186 118.5q0 22.5 16.5 39t39 16.5t39 -16.5t16.5 -39t-16.5 -39t-39 -16.5t-39 16.5t-16.5 39zM203 877l8 110q6 84 8 122t4 104.5t-1 118.5t-9 106q-2 23 12.5 41t37 20t41 -12t20.5 -37q6 -55 9 -112.5t0 -126t-4 -108.5t-7 -124l-9 -111q-23 -348 37 -544 q6 -23 -5 -43.5t-32.5 -26.5t-42 5t-26.5 32q-63 217 -41 586z" />
<glyph unicode="&#x22;" horiz-adv-x="720" d="M87 1267q-1 48 1 201q2 25 18.5 40.5t40 13.5t39 -18.5t13.5 -39.5q-2 -150 -1 -195.5t11 -197t12 -201.5q2 -23 -13 -39t-39 -18t-40 13.5t-18 39.5q-2 43 -12.5 198t-11.5 203zM389 1123.5q0 52.5 1 146.5t1 129q0 23 16.5 39t39 16t39 -16t16.5 -39q0 -37 -1 -131 t-1 -144.5t4 -124t12 -133.5q2 -25 -11 -42t-37 -20t-41 10t-21 36q-8 63 -12.5 142t-4.5 131.5z" />
<glyph unicode="#" horiz-adv-x="1452" d="M-12 897q2 23 20.5 37t40.5 12q141 -16 313 -4l23 123q53 281 113 393q10 20 32.5 27.5t42 -2.5t26.5 -33t-3 -41q-51 -100 -102 -365l-17 -94q55 6 221 27q35 193 21 328q-2 23 12 41t37 20t41 -12.5t20 -36.5q14 -141 -16 -326l21 2q72 8 100 11q6 2 10 4l-2 -2l2 2 q-20 0 -22 2l22 -2h2h4h2h2h2l93 8q16 2 45 4q66 14 86 16h10h2h4q8 0 18 -4q33 -14 33 -51q0 -29 -22 -45l-17 -8q-2 0 -8 -2q-12 -2 -41 -6l-45 -9l-10 -2h-12q-23 -2 -35 -4l-78 -6q-4 -2 -6 -2h-8l16 -4q-8 0 -27 2q-10 -2 -108 -12l-55 -6q-12 -53 -31 -121 q145 8 250 8q23 0 39 -16.5t16 -39t-16.5 -39t-38.5 -16.5q-115 0 -279 -10q-33 -125 -49 -196.5t-32.5 -175t-16.5 -187.5q0 -23 -16.5 -39t-39 -16t-39 16t-16.5 39q0 195 94 553l-73 -4q-72 -6 -125 -8l-51 -230q0 -2 2 -2q20 -10 27 -31.5t-3 -42.5l-20 -40l-29 -58v-4 q0 -4 -1 -12t-1 -12q-4 -23 -12 -39q-23 -39 -68 -33q-27 4 -41 29q-4 8 -6 18q-2 8 -2 16q2 10 4 29q4 23 16 86q23 109 70 322q-129 -2 -237 4q-23 2 -38.5 18t-13.5 40t18.5 39t41.5 13q113 -6 252 -2q8 37 18 96q-168 -8 -307 7q-23 2 -37 20t-12 41zM440 737q41 2 97 6 l108 7l29 112l-217 -24zM961 897h2h-2z" />
<glyph unicode="$" horiz-adv-x="1222" d="M34 477q3 23 21.5 36t41 10t36.5 -21q100 -137 287 -180q4 328 -4 485q-125 41 -187 70q-135 63 -190 159q-31 55 0 123q20 45 67 94q66 68 146 117q43 27 82 45q-4 84 6 156q4 23 22.5 36t41 10t36 -21.5t11.5 -41.5q-8 -51 -7 -106q68 8 134 -10q-4 70 -5 129 q0 23 16.5 39t39 16t39 -16.5t16.5 -38.5q0 -80 8 -183l53 -32q90 -59 134 -82q20 -10 27 -31.5t-3 -42t-31.5 -28t-42.5 2.5q-49 25 -122 74l2 -10q25 -233 26 -342v-92q176 -90 254 -242q37 -80 26 -144.5t-63 -115.5q-86 -84 -229 -100q4 -43 10 -84q2 -23 -11 -41.5 t-35.5 -21.5t-41 10.5t-22.5 35.5q-6 45 -11 95q-41 0 -82 2v-48q0 -23 -16 -39t-38.5 -16t-39 16.5t-16.5 38.5v62q-246 49 -377 227q-12 18 -9 41zM137 1090q35 -66 139 -113q50 -24 134 -51l-4 51q-4 59 -21 139q-4 23 -14.5 71t-14.5 75q-4 20 -8 36l-39 -22 q-70 -43 -123 -100q-35 -35 -47 -62q-6 -16 -2 -24zM455 1337q4 -25 10 -55q4 -27 14 -74t15 -71q16 -90 22 -152q4 -47 6 -98q62 -19 103 -35v37q-2 104 -27 334q-6 59 -10 92q-8 4 -19 8q-57 23 -114 14zM528 768q6 -143 2 -463q39 -2 78 -2q0 63 2 135t6.5 163t6.5 132 q-41 16 -95 35zM719 309q98 14 154.5 69.5t17.5 131.5q-51 98 -160 166q-14 -305 -12 -367z" />
<glyph unicode="%" horiz-adv-x="1548" d="M397 991q-14 35 11 70q2 4 4 6q-2 16 6 33q8 20 30.5 27.5t43.5 -3.5q84 -39 75 -102q-8 -55 -71 -72q-23 -6 -45 -2q-41 6 -54 43zM405.5 167q2.5 24 18.5 38q129 115 227 323l82 191q53 123 94 201q59 109 172 260q147 195 181 241q12 18 34.5 23.5t41 -8t23.5 -36 t-9 -40.5q-33 -49 -180 -246q-115 -152 -164 -248q-39 -72 -90 -190l-84 -195q-109 -229 -254 -358q-16 -16 -40 -14t-39.5 18t-13 40zM1184 344q-8 29 4 53q12 31 49 54q14 20 37 22h10q37 2 53 -31q14 -26 -2 -51q-2 -41 -20 -67q-16 -23 -43 -30t-53.5 7t-34.5 43z" />
<glyph unicode="&#x26;" horiz-adv-x="1343" d="M121 170q-51 125 6 279q84 238 283 360l12 8q-33 88 -39 182q-10 143 18 220q29 84 104 133t163 57q90 8 171 -30t117 -124q53 -127 2 -231q-39 -80 -147 -145q-66 -39 -190 -93l-52 -22q49 -86 144 -186q33 -35 100 -103l92 -90q45 61 127 240q10 20 31.5 28.5t42 -1 t29 -31t0.5 -41.5q-4 -6 -18.5 -39t-18.5 -43l-21 -39q-12 -27 -20 -41l-21 -37q-14 -23 -27.5 -42.5t-27.5 -35.5q57 -66 96 -125q14 -18 9 -40.5t-23.5 -36t-41 -8.5t-34.5 24q-35 51 -80 102q-166 -166 -340 -231q-141 -53 -252 -19q-131 43 -194 201zM223 211 q45 -111 127 -135q72 -25 176 16q156 57 305 209l-90 90l-110 111q-107 115 -162 215l-2 -2q-164 -102 -238 -303q-41 -115 -6 -201zM494 1008q3 -74 28 -144l56 25q121 49 176 84q80 49 106 100q29 57 -6 137q-20 49 -67.5 72t-109 16.5t-108.5 -38t-65 -78.5 q-18 -55 -10 -174z" />
<glyph unicode="'" horiz-adv-x="485" d="M137 1446q-6 20 5.5 40.5t33 27t42 -4.5t26.5 -34q27 -92 34 -193.5t1.5 -265.5t-5.5 -186.5t-16 -39t-38.5 -16.5t-39 16.5t-16.5 38.5q0 55 3 156.5t4 164t-7 145.5t-27 151z" />
<glyph unicode="(" horiz-adv-x="837" d="M111 385q-18 158 0 344t87.5 375.5t178.5 302.5q14 16 37.5 16t40 -15t16.5 -39t-16 -40q-137 -141 -199.5 -419.5t-34.5 -512.5q25 -197 180 -460q57 -96 98.5 -147.5t106.5 -92.5q20 -12 25.5 -34.5t-7 -42t-35 -25t-40.5 7.5q-57 35 -103.5 84t-73 87t-65.5 105 q-170 285 -196 506z" />
<glyph unicode=")" horiz-adv-x="690" d="M21.5 1361.5q-3.5 22.5 10 41t36.5 21.5t41 -9q115 -84 198.5 -235.5t130.5 -331.5q43 -176 47 -347t-39 -308q-66 -201 -286 -402q-16 -16 -39 -14t-39 18.5t-14 39t18 38.5q199 180 254 352q37 115 35 273.5t-45 320.5q-41 168 -116 302t-171 204q-18 14 -21.5 36.5z " />
<glyph unicode="*" horiz-adv-x="772" d="M82 1265.5q0 22.5 15.5 40t38 17.5t38.5 -14q49 -45 109 -92l-7 26q-25 131 -28 209q-2 23 13 40t38 19t40 -13t19 -38q4 -72 27 -190q49 80 76 149q8 20 28.5 29.5t42 1.5t30.5 -28.5t1 -43.5q-41 -104 -143 -258l-2 -4l123 -88q18 -14 21 -36.5t-10 -41t-35.5 -21.5 t-41.5 9l-49 37q6 -57 16 -98q6 -23 -5 -42.5t-33.5 -25.5t-42 5t-25.5 34q-13 47 -19 113q-25 -39 -43 -76q-10 -20 -31.5 -27.5t-42 2.5t-27.5 31.5t3 42.5q33 68 90 156q-98 74 -166 137q-18 16 -18 38.5z" />
<glyph unicode="+" horiz-adv-x="1138" d="M33 550.5q0 22.5 17 38t40 15.5q119 -4 393 0h33q-4 47 -12 105l-21 131l-18 129q-2 23 11 41t36 21t41 -10t22 -36q6 -45 19.5 -132t17.5 -128q10 -66 17 -121q143 2 252 -4q25 -2 40 -18.5t13 -40t-18.5 -39t-38.5 -13.5q-104 6 -240 5q2 -18 2 -37q2 -63 -2 -168 q-6 -117 -6 -160q0 -23 -16.5 -39t-39 -16t-39 16t-16.5 39q0 18 6 166q4 98 2 158q0 20 -2 41h-43q-276 -4 -397 0q-23 0 -38 17t-15 39.5z" />
<glyph unicode="," horiz-adv-x="555" d="M104.5 -248.5q-8.5 21.5 1 42t29.5 28.5q86 35 103 139q14 104 -43 193q-12 20 -7 41.5t24 35t41 8t36 -23.5q80 -123 57 -270q-10 -76 -53 -136.5t-117 -89.5q-23 -8 -43 1.5t-28.5 31z" />
<glyph unicode="-" d="M80 535.5q-6 21.5 5 42t34 26.5q92 27 243 27q195 -2 232 2q23 2 40 -12.5t19 -38t-12 -41t-39 -19.5q-41 -4 -240 -2q-137 0 -215 -22q-20 -6 -40.5 5t-26.5 32.5z" />
<glyph unicode="." horiz-adv-x="473" d="M158 147.5q0 22.5 16 39t39 16.5t39 -16.5t16 -39t-16 -39t-39 -16.5t-39 16.5t-16 39z" />
<glyph unicode="/" horiz-adv-x="735" d="M18 61q47 246 130 537t174 526q12 35 34 90l39 97q16 43 27 86q6 20 25.5 32.5t41 6.5t34 -25.5t5.5 -42.5q-10 -45 -28 -94l-41 -105l-35 -82q-86 -233 -168 -519.5t-131 -526.5q-4 -23 -22.5 -36t-41 -8t-36 23t-7.5 41z" />
<glyph unicode="0" horiz-adv-x="1177" d="M20 590q-25 256 95 551q82 205 186 254q97 45 199 16q145 80 286 -45q104 -92 150 -238q35 -115 37 -290.5t-35 -358.5q-18 -92 -49 -168q-33 -78 -82 -147.5t-122 -108.5t-161 -37q-207 2 -356 199q-127 168 -148 373zM131 602q18 -178 125 -319q115 -152 268 -154 q115 -2 192 97.5t115 277.5q33 170 31 332q-2 160 -33 260q-35 115 -116 188q-6 6 -13 10q25 -33 0 -65q-14 -18 -36.5 -21t-40.5 9q-43 33 -73 50t-65.5 32.5t-68.5 13.5t-66 -17q-66 -31 -133 -196q-109 -270 -86 -498z" />
<glyph unicode="1" horiz-adv-x="1343" d="M53 124.5q0 22.5 17.5 38t40.5 15.5q172 -6 391 2q2 16 14 27q0 10 -2 22q-2 59 -6 150l-2 55l-2 17v10q6 356 35 659l8 62q8 61 10 102q2 20 2 39l-35 -45l-78 -100q-49 -61 -81 -99q-47 -51 -82 -67q-27 -12 -62 -8l-16 4h-6q-23 0 -38.5 17t-15.5 39.5t17.5 38 t40.5 15.5q10 0 35 -4q18 10 45 41q31 33 75 90l78 101q43 55 64 77q2 2 6 11q10 16 16 22q14 18 31 27q39 23 74 -6t41 -97q4 -43 0 -104q-2 -41 -10.5 -103.5t-8.5 -64.5q-29 -297 -35 -647v-4l2 -17l2 -55q4 -92 7 -152q2 -27 2 -47l223 15q152 8 231 12q23 2 39.5 -13.5 t18.5 -39t-13.5 -40t-40.5 -18.5q-78 -4 -237.5 -14t-241.5 -14h-2q-23 -18 -49 -13q-12 2 -20 11q-246 -10 -429 -4q-23 0 -38 17t-15 39.5z" />
<glyph unicode="2" horiz-adv-x="1169" d="M74 1124q14 74 83.5 133.5t161.5 100.5q88 39 173 55q86 14 157 -2q176 -51 264 -309q70 -205 50 -393q-14 -137 -111 -269q72 -115 94 -274q2 -25 -11 -42.5t-37 -20.5t-41 10.5t-21 36.5q-14 117 -60 200q-100 -102 -225 -166q-162 -80 -287 -57q-74 12 -122 62.5 t-60 132.5q-14 104 45 173.5t156 104.5q82 29 177 34t158 -13q92 -27 162 -91q61 96 72 191q18 164 -43 346q-70 203 -193 238q-37 10 -107.5 -2.5t-146.5 -45.5q-76 -35 -124 -75.5t-56 -75.5q0 -4 2 -6q14 -39 15 -41q6 -23 -5.5 -42.5t-34 -25.5t-42 5t-25.5 34 q-2 4 -3 7t-3 8.5t-6 13.5q-12 37 -6 65zM193 338q12 -88 90 -102q90 -16 217 49q119 57 211 157q-51 53 -121 72q-45 14 -123 10q-80 -4 -145 -28q-145 -53 -129 -158z" />
<glyph unicode="3" horiz-adv-x="1212" d="M59 467q2 23 19.5 37t41 12t38 -19.5t12.5 -41.5q-16 -166 78 -230q88 -57 241 -24q156 33 277 131q123 102 131 211q8 98 -76 168.5t-194 60.5q-12 0 -43 -14q-47 -18 -74 -23h-10h-8q-16 2 -29 13q-16 12 -21 32q-2 18 7 35q6 12 16 21q4 4 10 6t23 8q31 12 34 16 q63 41 105 107q39 59 35 152.5t-51 144.5q-31 35 -101 30q-72 -2 -158 -45q-82 -41 -135 -100q-51 -55 -49 -98q0 -10 8 -29q0 -4 2 -7t4.5 -8t2.5 -7q8 -16 12 -29q6 -20 -4 -41t-31.5 -28t-42.5 3t-29 33l-6 19l-10 24q-16 37 -16 66q-2 88 77 176q66 76 168 127 q106 51 203 55q119 6 186 -68q74 -80 80 -213t-51 -215l-24 -36q131 -20 221 -115.5t80 -228.5q-14 -158 -172 -287q-141 -119 -324 -156q-199 -43 -326 41q-150 98 -127 334z" />
<glyph unicode="4" horiz-adv-x="985" d="M115 782l8 21l6 12q102 383 125 492q4 23 23.5 35t42 6.5t34.5 -24.5t6 -42q-23 -109 -124 -496q-2 -6 -5 -14h23q63 2 170 14q70 8 168 23l29 4q2 37 6 76q0 31 -2 72q0 27 -1 72.5t-1 60.5v49v31q4 59 28 221q2 6 3 20.5t1 20.5q2 18 5.5 27.5t9.5 17.5q25 33 63 18 q23 -8 33 -29l4 -12q10 -39 11 -90t-3 -90t-11 -92t-9 -72q-18 -211 -21 -227v-56q0 -31 -2 -47v-18q-2 -4 -2 -10q-2 -8 -8 -15q-6 -117 -8 -215v-2q-6 -145 -8 -248v-47q31 -20 22 -55q-8 -49 -20 -65q-14 -23 -39 -27q-35 -6 -58 24q-8 12 -12 33q-6 35 -4 137 q2 104 8 250q2 82 6 174h-4q-86 -14 -172 -22q-111 -12 -178 -16q-43 0 -68 2q-18 2 -30 4q-27 8 -39 28q-27 37 -6 86z" />
<glyph unicode="5" horiz-adv-x="1228" d="M170 1290q0 31 2 51q2 12 4 23q4 18 17 31q10 10 24 16q4 0 8 2h6h9h18q23 0 64 -2q55 -2 192 -6q147 -6 201 -8q96 -2 110 -2q23 0 40.5 -15.5t17.5 -38t-15.5 -40t-38.5 -17.5q-18 0 -118 2q-53 2 -201 8t-191 6q-23 2 -38 3v-13q0 -45 4 -127q12 -217 12 -223 t-2 -29.5t-4 -60.5t-4 -66l-2 -20l12 12l65 64q37 37 54 49q80 51 178 54t184 -33t152.5 -108.5t85.5 -164.5q6 -29 8 -96q2 -74 -6 -101q-43 -150 -250 -233q-182 -72 -330 -39q-78 16 -127 65.5t-86 122.5q-10 20 -3 42t27.5 32t42 3t32.5 -27q29 -57 60.5 -89t78.5 -43 q111 -25 264 37q156 61 184 158q4 12 2 69.5t-4 73.5q-14 66 -63 118t-111.5 79t-133.5 24.5t-124 -38.5q-8 -4 -37 -33l-65 -66q-43 -41 -68 -61q-18 -16 -33 -25q-25 -16 -49 -14q-31 2 -45 29q-4 8 -6 16t-2 18q-2 12 0 35q0 35 4 97q2 31 4 66.5t4 59t2 27.5 q0 2 -12 213q-4 86 -4 133z" />
<glyph unicode="6" horiz-adv-x="1150" d="M93 575.5q-3 137.5 15.5 265.5t55.5 240q57 170 137 265q135 158 305 73q53 -27 94 -68.5t91 -113.5l53 -80q12 -18 9 -40.5t-21.5 -36t-41 -10t-36.5 21.5q-20 27 -60.5 88t-68 90.5t-68.5 50.5q-92 45 -172 -47q-66 -78 -115 -230q-49 -141 -64.5 -301.5t18.5 -323.5 t120 -263q70 -80 156 -58q57 16 118 74q-80 117 -96 287t37 295q25 61 79 98t114 41q68 2 119 -39t67 -117q27 -123 -26.5 -285.5t-151.5 -287.5q-111 -139 -232 -172q-152 -41 -266 90q-82 94 -123 225q-43 131 -46 268.5zM631 485q10 -131 63 -225q76 109 116 238t21 215 q-16 72 -75 69q-29 -2 -55.5 -20.5t-38.5 -48.5q-39 -96 -31 -228z" />
<glyph unicode="7" horiz-adv-x="1187" d="M-35 1259.5q6 22.5 25.5 33.5t42.5 5q84 -23 88 -22q25 -4 88 2q29 2 141 22q172 31 211 37q129 18 213 17q117 0 168 -43t41 -119q-8 -47 -39 -107q-20 -39 -57 -92q-35 -53 -37 -55q-59 -100 -98 -173t-80 -173t-59.5 -182t-18.5 -178.5t29 -184.5q6 -23 -4.5 -42 t-33 -26.5t-42 3t-27.5 32.5q-33 102 -33 214t19.5 204t66.5 202.5t86 183.5t101 177q2 4 41 62q31 47 49 80q23 43 26 71v17q-23 18 -100 18q-72 2 -194 -16q-57 -8 -207 -35q-117 -20 -154 -25q-76 -6 -115 0q-8 0 -98 25q-23 6 -34 25.5t-5 42z" />
<glyph unicode="8" horiz-adv-x="1099" d="M106 961q-12 115 48.5 208t160.5 150q94 53 201 64.5t205 -27.5q92 -20 137 -82q61 -82 23 -207q-18 -57 -57.5 -117.5t-70 -95.5t-81.5 -88q-8 -10 -45 -47l-64 -62l27 -22q162 -129 207 -221q35 -70 18 -133q-18 -68 -94 -119q-68 -43 -159 -60.5t-171 -5.5 q-188 29 -201 168q-6 96 91 236q47 66 116 145q-92 70 -133 107q-68 55 -102 98q-49 59 -56 111zM217 973q2 -18 29 -53q31 -35 88 -84l139 -111l72 72l49 47q72 76 117 134t63 122q8 25 10 45q-10 16 -22 35l-21 24q-4 8 -12 18.5t-16 14.5l-25 14h-6q-68 10 -145.5 -8 t-122.5 -53q-18 -14 -41 -12t-37 20l-2 2q-131 -92 -117 -227zM301 272q4 -51 107 -65q63 -10 133.5 3t117.5 46q41 27 50 53q6 23 -11 56q-35 70 -178 184l-35 29q-70 -76 -112 -142q-76 -106 -72 -164z" />
<glyph unicode="9" horiz-adv-x="1159" d="M66 905q12 182 117.5 306t254.5 159q168 37 314 -49q14 18 36 22q37 4 56 -26l6 -19q2 -2 2 -4v-6q2 -25 2 -51q57 -63 96 -147q8 -20 0 -42t-28 -32q-18 -8 -38 -2t-32 24q0 -57 2 -100q2 -31 11 -178.5t12 -224.5v-11v-22q0 -14 1 -33.5t1 -43.5t1 -47.5t1 -50t2 -48.5 v-56q4 -10 4 -20v-56q0 -6 -1 -9t-1 -7q-2 -4 -4 -10q-8 -16 -23 -25q-37 -18 -65 8q-8 8 -13 19q-2 6 -3 11t-3 18q0 27 -2 124q-2 23 -2 49.5t-1 50t-1 47t-1 43t-1 34.5v22v8q-2 64 -18 330q-63 -131 -144 -217q-86 -92 -180 -119q-115 -33 -227 37q-147 90 -131 344z M176 897q-12 -186 78 -242q72 -43 141 -24q63 18 129 88q113 123 174 313q23 70 37 166q-121 98 -272 64q-115 -25 -196 -121.5t-91 -243.5z" />
<glyph unicode=":" horiz-adv-x="563" d="M221 907.5q0 22.5 16.5 39t39 16.5t39 -16.5t16.5 -39t-16.5 -39t-39 -16.5t-39 16.5t-16.5 39zM248 83.5q0 22.5 16.5 39t39 16.5t38.5 -16.5t16 -39t-16 -38.5t-38.5 -16t-39 16t-16.5 38.5z" />
<glyph unicode=";" horiz-adv-x="600" d="M112.5 -191.5q6.5 21.5 24.5 33.5q84 51 114 82t34 58q4 25 -6 79q-4 12 -9.5 39t-11.5 53.5t-10 53.5q-2 23 11 41t35.5 21t41 -10t22.5 -36q4 -25 11 -51l8 -51q6 -27 10 -39q14 -74 8 -119q-10 -61 -57 -110q-47 -47 -143 -105q-20 -12 -42 -6t-34.5 25.5t-6 41z M219 942.5q0 22.5 16.5 38.5t39 16t39 -16t16.5 -38.5t-16.5 -39t-39 -16.5t-39 16.5t-16.5 39z" />
<glyph unicode="&#x3c;" horiz-adv-x="1173" d="M29 469q-8 27 10 49l8 8q4 4 9 7.5t12 5.5q10 6 30 14l90 39l156 65l115 48q84 35 123 52t101 50t106.5 67.5t82.5 75.5q16 16 39 18.5t39.5 -14t18 -39t-14.5 -38.5q-43 -49 -96 -89t-120.5 -76t-110.5 -56.5t-127 -55.5l-111 -45l-158 -66l-41 -18l37 -18 q90 -45 250 -113l443 -176q23 -8 30.5 -29.5t-0.5 -43t-29.5 -30t-41.5 -0.5l-445 179q-158 66 -256 114q-59 31 -90 49q-20 12 -33 25q-20 18 -26 41z" />
<glyph unicode="=" horiz-adv-x="1382" d="M76 385q2 23 19 38t40 13q195 -16 490 -10q23 0 211 4t286 4q23 0 39.5 -16.5t16.5 -39t-16.5 -38.5t-39.5 -16q-98 0 -284.5 -4.5t-210.5 -4.5q-299 -6 -500 11q-23 2 -38 19t-13 40zM91 739.5q1 22.5 17 38t39 15.5q47 -2 138 2q98 6 145 4q336 -10 596 -11 q23 0 39 -16t16 -38.5t-16 -39t-39 -16.5h-108q-18 -27 -52 -25q-74 6 -311 4q-205 -2 -324 19q-8 2 -16 6h-39h-33q-23 2 -38 18.5t-14 39z" />
<glyph unicode="&#x3e;" horiz-adv-x="1312" d="M36 39.5q7 21.5 30 30.5q420 197 718 311q8 4 56 18q49 14 82 27l20 8l-22 10v2l-43 23l-15 6v2h-2h-2v2h-2q-4 2 -10 8l-23 13l-180 98l-207 115q-68 37 -173 103.5t-187 129.5q-16 12 -19.5 36t10 41t37 20.5t41.5 -11.5q78 -59 179.5 -123.5t167.5 -101.5l202 -111 l183 -98l135 -76q25 -6 30 -8q72 -23 66 -82q-2 -31 -31 -53q-12 -12 -35 -23q-31 -16 -84 -34l-86 -29q-43 -12 -47 -14q-297 -115 -714 -308q-20 -10 -42 -3t-31 28.5t-2 43z" />
<glyph unicode="?" horiz-adv-x="1214" d="M145 987q-8 143 94.5 261t247.5 171q72 25 143.5 30t140.5 -12.5t126 -69.5t88 -132q63 -164 -37 -287q-12 -16 -30 -33l-33 -26q-12 -12 -37 -29.5t-35 -24t-39 -24.5l-35 -23q-125 -84 -157 -143q-45 -86 26 -221q10 -20 3 -43t-26.5 -33t-42 -3t-32.5 26 q-98 188 -27 325q45 88 197 185q8 6 31.5 20t32 20.5t26.5 18.5l29 18q10 8 23.5 19.5t22.5 22t17 20.5q59 72 21 174q-41 104 -141.5 135t-215.5 -14q-121 -43 -198.5 -133t-71.5 -191q2 -23 -13.5 -39t-39 -18t-40 13t-18.5 40zM500 161.5q0 22.5 16 39t39 16.5t39 -16.5 t16 -39t-16 -39t-39 -16.5t-39 16.5t-16 39z" />
<glyph unicode="@" horiz-adv-x="1888" d="M328 457.5q4 111.5 30 234.5q41 174 118 335t167 257q180 188 356 223q152 31 301.5 -30.5t251 -185.5t125.5 -273q33 -209 -51 -463q-41 -121 -98 -207q23 -6 34 -25.5t5 -41.5q-16 -63 -59.5 -121t-82.5 -87.5t-102 -70.5q-96 -61 -209 -97t-233.5 -43t-237.5 40 t-201 147q-63 76 -90.5 186.5t-23.5 222zM442 354q14 -150 86 -235q84 -102 217 -131q133 -31 266.5 -0.5t254.5 108.5q119 76 161 137l-16 -12q-84 -61 -151 -59q-74 2 -115 71q-53 92 -43 304v10q-43 -55 -86 -94q-92 -84 -174 -93q-111 -10 -180 109q-43 74 -33 231 q10 152 64.5 264.5t146.5 161.5q161 86 356 -61q12 35 23 53q4 8 10 12q16 18 39 21q37 2 55 -31q4 -10 6 -22q2 -16 -2 -47q-6 -47 -16 -90q-18 -84 -72 -199q-20 -125 -27 -230q-10 -180 27 -241q10 -18 25 -19q29 0 82 39q109 80 174 281q78 227 47 409 q-29 186 -197 310.5t-350 89.5q-139 -29 -295 -195q-80 -82 -152 -229q-68 -143 -106 -309q-39 -166 -25 -314zM739 692q-8 -123 17 -166q35 -59 75 -55q45 4 111 64q57 51 111 127q51 76 77 129l3 6q8 47 18 94l12 59q-158 139 -272 78q-59 -31 -100 -119q-43 -86 -52 -217 z" />
<glyph unicode="A" horiz-adv-x="1327" d="M94 133q23 57 37 113q14 57 29.5 135t27.5 123l37 153q-33 0 -65 5q-23 4 -37 21t-11 39.5t20 37t40 12.5q32 -4 62 -5l20 1q66 260 121 453q4 10 12 46t19.5 75.5t23.5 74.5q23 72 49 117q37 68 86 84q21 8 41 8q47 0 86 -49q33 -37 58 -113q16 -47 32 -118 q4 -12 8.5 -30t6.5 -28t4 -16q6 -25 29.5 -99.5t33.5 -111.5l25 -100q16 -61 26 -113q80 6 150 8q23 0 40 -15.5t17 -38t-15 -40t-38 -17.5q-66 -2 -135 -6q2 -20 4 -39q8 -82 12 -221t13.5 -250.5t31.5 -205.5q6 -23 -6 -43q-11 -19 -33 -25q-7 -2 -15 -2q-15 0 -27 8 q-20 12 -25 33q-25 100 -35 221t-15 263.5t-12 213.5l-4 37q-109 -12 -268 -35q-23 -2 -97.5 -14t-117.5 -18l-45 -183q-8 -37 -24.5 -117.5t-33 -145t-40.5 -124.5q-8 -20 -30 -29.5t-42.5 -1t-29.5 30.5q-5 11 -5 22q0 10 4 19zM371 778q23 2 79 11.5t89 15.5 q160 23 266 33q-16 86 -111 401q0 4 -18 82q-16 66 -31 109q-18 55 -37 77l-6 6q-12 -8 -27 -34q-20 -35 -40 -97q-16 -47 -35 -119.5t-19 -74.5q-53 -179 -110 -410z" />
<glyph unicode="B" horiz-adv-x="1497" d="M135 1362q0 23 16.5 39t39 16t39 -16.5t16.5 -38.5q0 -55 6 -143q61 104 174 159q116 58 244 58q32 0 65 -4q84 -10 156 -65.5t115 -135.5q43 -82 46 -168v-10q0 -81 -46 -162q-10 -14 -23 -29q197 -51 277 -237q35 -85 36 -164q0 -109 -67 -207q-98 -141 -303 -215 q-104 -37 -209 -45q-27 -2 -54 -2q-83 0 -163 18q-108 24 -185 84q-10 -16 -26 -24q-14 -7 -28 -7q-20 0 -38 15q-12 10 -18 28q-6 14 -10 39q0 10 -3.5 37t-5.5 41q-2 27 -10 75t-10 58q-12 84 -14 142q-4 35 -4 137q0 51 1 117q3 202 3 256.5t-8.5 173t-8.5 180.5z M289 934v-16q1 -94 21 -262q22 -184 22 -193q4 -59 4 -182v-56q80 -95 238 -117q43 -6 87 -6q115 0 228 41q170 59 248 174q47 68 47 144q0 57 -27 119q-74 174 -285 190q-80 -47 -217 -90q-23 -6 -131 -31q-51 -12 -82 -16q-18 -4 -30 -6h-15h-14q-39 29 -43 47q-1 6 -1 13 q0 49 56 85q33 25 92 45q66 25 152 43q98 23 189 23h14q45 31 69 69q32 48 32 103q0 58 -36 125q-31 57 -81 96t-103 45q-29 4 -57 4q-101 0 -191 -45q-176 -88 -186 -346z" />
<glyph unicode="C" horiz-adv-x="1359" d="M62 718q-1 27 -1 53q0 190 56 357q70 219 213 316q101 69 224 69q83 0 177 -32q49 -18 96 -48t79 -54.5t73 -74t57 -71.5l58 -82q41 -59 51 -72q10 -14 10 -32q0 -3 -1 -9q-3 -24 -21.5 -36.5t-42 -9t-35.5 21.5l-54 76q-43 61 -56 78.5t-50 62.5t-60.5 63.5t-61.5 43 t-79 36.5q-76 27 -142 27q-89 0 -159 -49q-113 -76 -172 -258q-49 -156 -49 -328q0 -22 1 -44q7 -196 71 -323q76 -150 196 -201q67 -28 136 -29q56 0 113 19q128 41 220 155t103 267q2 23 19.5 38.5t40 13t37.5 -19.5t13 -40q-14 -188 -126.5 -328.5t-272.5 -189.5 q-74 -24 -147 -24q-90 0 -178 36q-158 66 -253 254q-74 148 -83 368z" />
<glyph unicode="D" horiz-adv-x="1474" d="M150 1362q0 23 16 39t38.5 16t39 -16.5t16.5 -38.5q0 -80 2 -193q90 186 297 230q54 11 105 11q153 0 282 -101q174 -137 258 -342q66 -157 66 -314q0 -47 -6 -94q-27 -213 -179 -354q-152 -139 -411 -148q-28 -1 -55 -1q-85 0 -146 10q-82 10 -166 53q-6 -8 -16 -15 q-29 -14 -55 -6q-31 10 -41 41q-8 20 -7 58q0 16 1 36.5t2.5 26.5t-1.5 19q-6 43 -9 89t-4 107.5t-3 83.5q0 20 -8 134t-8 175.5t-4 231.5t-4 262zM304 828v-24q0 -28 1 -68q2 -60 3 -77.5t6 -87t5 -73.5q4 -70 7 -181q2 -44 2 -81q74 -48 148 -60q56 -9 138 -9q27 0 56 1 q219 8 341 119.5t144 285.5q5 39 5 80q0 132 -58 271q-74 180 -225 299q-99 77 -216 77q-38 0 -77 -8q-215 -45 -265 -305q-6 -37 -10 -83t-5 -76z" />
<glyph unicode="E" horiz-adv-x="1349" d="M154 299q0 72 7 178.5t7 114.5q0 18 1 91t3 145.5t8 138.5q10 127 33 213q31 113 86 161q33 29 113 54q61 18 145 18q57 0 125 -8q31 -2 129 -16q74 -12 115 -15q23 -2 38 -19.5t13 -40t-19 -37.5t-40 -13q-45 4 -123 14q-96 14 -127 18q-57 6 -104 6q-71 0 -120 -14 q-57 -16 -71 -28q-31 -27 -54 -109q-20 -76 -30 -195q-4 -68 -8 -153q30 -2 68 -2q75 0 185 8q164 12 222 14q25 0 41 -15t16 -39t-15.5 -40t-37.5 -16q-41 1 -213 -13q-119 -9 -201 -10q-36 0 -65 2q-2 -86 -2 -104q0 -6 -7.5 -112.5t-7.5 -178.5v-38q0 -74 6 -122 q2 -12 4 -22l7 -17l3 -12t3 -6v-2q16 -4 61 2q49 6 137 33q49 16 148 49q84 29 108 33q133 30 336 30h13q23 0 39 -16t16 -39t-16.5 -39t-38.5 -16q-199 0 -324 -27l-98 -31l-150 -51q-94 -27 -156 -37q-26 -3 -48 -3q-57 0 -89 22q-49 31 -63 133q-8 60 -8 144v34z" />
<glyph unicode="F" horiz-adv-x="1284" d="M176 571q0 51 4 172v13v2q6 176 6 276q0 14 -4 84q-3 44 -3 77q0 16 1 30q6 152 94 205t226 53q78 0 172 -17q72 -12 196 -47q115 -29 166 -39q23 -4 36 -24q10 -15 10 -31q0 -5 -1 -11q-4 -22 -23 -35t-42 -9q-43 8 -174 43q-125 33 -189 45q-84 16 -151 16 q-105 0 -168 -39q-37 -23 -41 -114q-1 -12 -1 -27q0 -30 3 -70q4 -74 4 -90q0 -92 -4 -233q26 -2 57 -2q93 0 225 14q264 25 353 25q23 0 39 -16.5t16 -39t-16.5 -39t-38.5 -16.5q-82 0 -342 -25q-142 -14 -238 -14q-32 0 -59 2q-2 -74 -2 -121q-2 -85 -2 -161 q0 -171 12 -295q2 -25 -12.5 -42.5t-38.5 -19.5h-5q-19 1 -35 13q-18 14 -20 36q-12 135 -12 309q0 77 2 162z" />
<glyph unicode="G" horiz-adv-x="1744" d="M61 664q-2 38 -2 75q0 124 25 248q35 178 121 307q86 131 227 168q63 16 127 16q142 0 289 -81q43 -25 164 -105q96 -66 157 -94q20 -8 27.5 -29.5t-1.5 -43t-30.5 -28.5t-44.5 3q-61 29 -170 100q-115 76 -157 100q-121 68 -237 68q-48 0 -95 -12q-100 -27 -169 -131.5 t-99 -259.5q-23 -119 -23 -233q0 -31 2 -62q8 -144 47 -234q37 -84 101.5 -155.5t142.5 -108.5q74 -35 159 -37h11q79 0 151 27q78 28 142.5 77.5t104.5 123t42 155.5q2 55 0 57q0 8 -24 35q-33 37 -97 56l-10 -2q-143 -37 -217 -46q-22 -2 -40 -2q-28 0 -48 5 q-63 12 -74 67q-6 23 8 43l13 12q6 4 12 7.5t16 7.5q20 6 47 12q68 14 140 18q21 1 41 1q60 0 110 -9l183 45q55 12 88 17q9 1 18 1q40 0 61 -16q43 -29 52 -90q1 -11 1 -22q0 -30 -7 -66q-6 -29 -21 -80q-12 -39 -12 -49q-8 -59 -9 -170v-21q0 -103 9 -227 q14 -141 42.5 -227t61.5 -100q6 -2 21 -2h8q2 0 6 1t8 1h27q23 -2 38 -19q14 -15 14 -36q0 -24 -17 -40t-39 -16h-17l-24 -2h-11q-32 0 -55 10q-82 33 -125 168q-33 98 -49 252q-10 119 -10 224v34q2 119 10 187q2 16 17 63q12 45 18 70q6 37 4 55q0 4 -2 6h-8 q-25 -2 -74 -14l-49 -10q12 -10 22 -23q43 -49 52 -82q3 -11 3 -46q0 -18 -1 -42q-4 -109 -54.5 -203t-132.5 -156.5t-179 -98.5q-86 -32 -181 -32h-23q-108 5 -200 50q-96 45 -174 131t-123 186q-47 109 -56 273z" />
<glyph unicode="H" horiz-adv-x="1394" d="M-114 700q3 22 21.5 36t41.5 12q60 -9 126 -9h13q-10 381 -10 600q0 23 16.5 39.5t39 16.5t38.5 -16.5t16 -39.5q0 -219 11 -591q25 2 74 7t93 10t83 7q92 6 190 6t239.5 -3t190.5 -3q-12 346 -53 623q-2 23 11 41t35 21q4 1 9 1q19 0 33 -11q18 -13 22 -36 q31 -213 45.5 -476t16.5 -427t2 -475q0 -23 -16.5 -39.5t-39 -16.5t-39 16.5t-16.5 39.5q0 426 -6 629q-53 0 -190.5 3t-235.5 3t-190 -6q-47 -2 -136.5 -12.5t-119.5 -12.5q10 -420 10 -643q0 -23 -16.5 -39t-39 -16t-39 16t-16.5 39q0 223 -10 635h-28q-69 0 -130 8 q-23 5 -36 23q-11 15 -11 32q0 4 1 8z" />
<glyph unicode="I" horiz-adv-x="518" d="M178 1430q2 25 18 40q15 13 35 13h5q24 -2 39.5 -18.5t13.5 -39.5q-15 -291 -15 -563q0 -438 39 -823v-6q0 -20 -12 -35q-15 -18 -37 -20q-3 0 -6 -1q-18 1 -34 13q-18 14 -21 37q-38 411 -38 860q0 265 13 543z" />
<glyph unicode="J" horiz-adv-x="1337" d="M27 422q0 23 17 38t39.5 15t38 -17.5t15.5 -39.5v-20q0 -115 43 -204q47 -98 117 -135q31 -17 63 -17t64 17q84 43 149 185q78 168 86 567q0 131 -1 198.5t-4 190.5t-3 170q-78 -8 -172 -20q-31 -4 -108.5 -10.5t-125.5 -15.5t-89 -28q-23 -8 -43.5 0.5t-29.5 30t-0.5 42 t28.5 30.5q51 23 110.5 34t144.5 18t101 9l283 35q207 23 319 39h6q19 0 35 -12q18 -13 22 -36v-9q0 -17 -10 -31q-14 -19 -37 -23q-115 -16 -323 -39q0 -51 3 -174t4 -196.5t1 -206.5q-10 -420 -98 -608q-80 -176 -197 -238q-57 -29 -114.5 -29t-114.5 29q-102 53 -162 180 q-57 119 -57 262v19z" />
<glyph unicode="K" horiz-adv-x="1251" d="M104 1452v5q0 20 14 35q16 17 38 19h5q19 0 35 -13q18 -15 19 -38q23 -317 29 -715l55 56q10 10 98 106q66 72 109 111l117 104l122 111q45 41 103.5 103.5t97.5 119.5q12 18 35 23.5t41 -8t24 -35.5q1 -6 1 -12q0 -16 -11 -29q-41 -61 -102.5 -129t-104.5 -107 l-129 -115q-84 -74 -106 -96q14 2 31 0q109 -6 182 -104q51 -66 82 -154t41 -153.5t20.5 -168t18.5 -145.5l2 -14q2 -14 5 -40t7 -44v-2q27 -20 23 -53v-4q2 -20 2 -23q0 -23 -7 -37q-8 -23 -28 -33q-14 -6 -29 -6q-9 0 -18 2q-16 6 -27 19q-4 4 -6 10q-2 4 -4 6v6 q-2 2 -2 4v9q-2 6 -4 20l-11 66q-2 18 -6 42.5t-6 39t-2 16.5q-8 57 -18.5 155.5t-18.5 155.5t-33.5 131t-66.5 129q-45 57 -103 60h-10q-51 0 -116 -37q-66 -39 -126.5 -103.5t-93.5 -124.5q-10 -16 -26 -24v-168v-35q0 -33 -1 -66.5t-1 -82.5v-9q10 -37 16 -65 q8 -45 8 -72q2 -23 -4 -39q-8 -23 -26 -32q-25 -16 -54 -5q-25 10 -34 35q-4 10 -7 23q-4 16 -6 45q-2 37 -2 96l-4 12l-2 7v2v2q-2 2 -2 4q-16 105 -16 190q0 105 24 182q-4 504 -31 879z" />
<glyph unicode="L" horiz-adv-x="1218" d="M51 1364q5 22 25 34q13 8 27 9q7 -1 15 -3q22 -6 34 -24l8 -16l12 -14q6 -8 10 -15q23 -35 33 -63q13 -45 14 -110q0 -32 -4 -70q-2 -27 -8 -81.5t-8 -78.5q-6 -99 -6 -221q0 -73 2 -154q4 -133 18 -217q6 -43 17 -70l4 -16q47 -33 223 -33q43 0 149 2q45 1 76.5 1 t48.5 -1q45 -2 115 -12q78 -12 107 -14q25 -1 39 -19q12 -15 12 -36v-6q-2 -24 -20 -38q-15 -13 -35 -12h-5q-35 4 -114 14q-68 10 -107 13q-12 1 -41 1t-74 -1q-109 -2 -151 -2q-211 0 -285 53q-31 20 -47 69q-12 35 -22 91q-12 88 -19 229q-3 89 -3 169q0 120 7 218 q2 25 8.5 79t10.5 83q2 27 2 50q0 54 -10 87q-4 14 -19 35l-33 49q-8 13 -8 27q0 7 2 14z" />
<glyph unicode="M" horiz-adv-x="1667" d="M162 199q6 207 6 454v258q4 145 27 287q14 98 36 152q16 39 39 59q25 23 54 23q16 0 32 -7q20 -8 37 -32q8 -12 19 -31q12 -29 30 -78l19 -51q10 -27 17 -48.5t7 -25.5q49 -137 131 -397t123 -375q4 -16 45 -127l39 160q14 63 48 241.5t70 307.5t91 241q25 49 82 146 q31 51 53 80q14 20 25 30l18 15q16 8 32 8l22 -4q31 -12 51 -51q14 -25 26 -64q20 -61 39 -160q25 -137 37 -270l29 -328q8 -106 10 -284q2 -215 6 -281v-5q0 -20 -13 -34q-15 -16 -39 -18h-6q-20 0 -34 13q-16 15 -18 40q-4 68 -6 283q-2 176 -11 278l-28 328 q-10 121 -35 258q-18 92 -35 147l-2 2l-27 -41q-55 -92 -78 -137q-51 -106 -83.5 -225t-65.5 -293q-31 -164 -51 -248q-39 -164 -43 -184l-27 -98q-8 -23 -14 -35q-4 -10 -8 -17q-6 -8 -15 -14q-18 -14 -41 -12q-10 2 -19 6t-13 8l-2 4q-4 4 -7 8q-2 2 -2 4.5t-2 2.5v2l-2 4 l-2 8l-12 29l-33 90q-49 137 -55 149l-121 375q-82 260 -129 397q-2 4 -10 25l-17 49l-16 49q-8 23 -14 37q-12 -39 -23 -100q-20 -135 -24 -275v-254q0 -250 -7 -458q0 -23 -17 -38.5t-39.5 -15.5t-38 17.5t-15.5 40.5z" />
<glyph unicode="N" horiz-adv-x="1392" d="M219 688q0 188 10 289q8 68 25 188l16 111q6 25 9 39q4 10 6 16q4 8 8 15q20 27 51 22q45 -6 86 -49q25 -29 49 -74q16 -31 37 -76q23 -47 25 -53l370 -700q37 -70 80 -140q16 -31 33 -51q0 10 2 25q2 33 2 78v53q27 655 49 971q1 23 19 38q15 13 35 13h5q22 -1 38 -19 q14 -16 14 -36v-5q-23 -313 -49 -966v-12v-17v-20q0 -49 -2 -86q-4 -55 -17 -90q-20 -66 -69 -76q-7 -2 -15 -2l-51 22q-14 12 -31 33q-25 33 -57 90q-45 72 -84 148l-371 700q-2 4 -26 57q-18 41 -33 68q-6 10 -10 18q-4 -27 -8 -59q-18 -121 -25 -186q-10 -94 -10 -277 q0 -293 16 -446q2 -23 -12.5 -41.5t-37 -20.5t-40.5 12t-20 37q-16 160 -17 459z" />
<glyph unicode="O" horiz-adv-x="1495" d="M26 730v13q0 179 76 353q80 180 230 295q156 118 305 119q67 0 133 -25q73 -25 145 -84q154 -33 259 -219q109 -193 116 -439q1 -16 1 -33q1 -106 -23 -206q-26 -114 -86 -216t-168.5 -169.5t-253.5 -83.5q-54 -6 -103 -6q-165 0 -276 65q-170 100 -261 275.5t-94 360.5z M136 732q3 -159 81 -308.5t221 -235.5q81 -49 212 -49q46 0 98 6q117 12 202 66q88 53 138 136q52 83 74 181q19 84 19 177q0 17 -1 34q-6 180 -74 332q-29 -2 -47 19l-45 53l-51 57q-14 18 -42 47t-51 49h-2q-39 2 -49 39q-43 31 -86 47q-44 16 -91 16q-116 0 -245 -98 t-196 -251q-65 -151 -65 -304v-13z" />
<glyph unicode="P" horiz-adv-x="1337" d="M166 794q4 82 16 164q-12 137 -12 242q0 63 4 115q2 25 19.5 39t41 12t38 -19.5t12.5 -39.5l-4 -52q47 82 124.5 146.5t169.5 99.5q70 30 153 31q23 0 48 -3q111 -11 199 -81q113 -90 147 -285q12 -73 12 -139q0 -208 -122 -348q-156 -176 -461 -189q-47 -2 -84 -2 q-80 0 -111 9q-18 4 -34 12q4 -49 7 -143.5t3 -110.5q2 -29 8 -119q2 -27 2 -29v-10q0 -8 -6 -18q-12 -25 -39 -29q-7 -1 -13 -1q-23 0 -38 17l-10 19q-2 2 -3 6q0 2 -2 8q0 4 -2 15q0 12 -20.5 149t-24.5 184l-12 158q-7 78 -7 142q0 26 1 50zM293 956l14 -157 q4 -50 8 -150q31 -39 68 -49q19 -4 74 -4q37 0 90 2q258 10 383 150q94 107 94 271q0 58 -12 124q-27 154 -107 219q-75 60 -167 60q-59 0 -126 -25q-76 -29 -141 -84.5t-100 -124.5q-53 -102 -78 -232z" />
<glyph unicode="Q" horiz-adv-x="1605" d="M49 592q-1 34 -1 66q0 227 61 374q68 164 200.5 283t286.5 155q61 14 118 14q146 0 263 -95q23 20 53 12q188 -49 270 -197q61 -111 72 -321q2 -34 2 -67q0 -316 -139 -533q-27 -43 -61 -82q133 -135 219 -275q8 -13 8 -28q0 -6 -1 -12q-5 -23 -24 -36q-14 -8 -30 -8 q-6 0 -12 1q-23 5 -36 26q-79 129 -204 256q-162 -129 -400 -143q-32 -2 -62 -2q-131 0 -224 36q-119 45 -201 140.5t-117 203.5q-37 109 -41 232zM160 596q6 -166 78 -295q74 -129 211 -182q75 -28 185 -28q25 0 52 1q195 10 328 111q-61 57 -131 110q-16 14 -19.5 37 t11 40.5t37 20.5t40.5 -12q74 -57 144 -120q25 29 47 63q121 185 121 468q0 34 -2 69q-8 182 -58 272q-41 76 -123 115q31 -47 54 -105q8 -20 -0.5 -41.5t-30 -30t-43 -0.5t-29.5 31q-66 160 -174 215q-71 37 -151 37q-42 0 -86 -10q-125 -29 -240 -129q-113 -102 -170 -242 q-52 -126 -52 -327q0 -33 1 -68z" />
<glyph unicode="R" horiz-adv-x="1492" d="M164 702q0 127 33 242q-4 57 -14.5 178t-14.5 185q-2 25 13.5 41t39 18t39.5 -13.5t19 -37.5q4 -61 12 -160q25 37 55 72q170 188 428 189q47 0 98 -7q90 -12 178.5 -51t143.5 -107q90 -110 90 -223q0 -17 -2 -35q-16 -111 -119 -207q-74 -68 -178 -118 q166 -114 244 -304q60 -146 60 -305q0 -47 -5 -94q-2 -23 -20 -37q-16 -12 -36 -12h-6q-22 2 -36.5 20.5t-11.5 40.5q5 43 5 85q-1 154 -67 291q-84 175 -258 265q-72 -20 -135 -28q-39 -4 -79 -5q-20 0 -45 -0.5t-55 0.5q-60 1 -73 1h-2q-2 0 -7 -2t-16 -4q-23 -4 -39 0 q-25 6 -38 25.5t-9 45.5q14 80 107 111q50 19 122 19q16 0 33 -1q133 -6 242 -43q141 49 227 129q76 70 84 144q2 11 2 23q0 72 -65 149q-39 47 -106.5 77.5t-141.5 38.5q-44 6 -85 6q-211 0 -347 -151q-82 -90 -121 -221q6 -90 6 -166q1 -100 1 -167t-1 -103q0 -4 -4 -85 t-6 -141l6 -41l10 -63l3 -23q2 -12 2 -16q0 -2 2 -18q2 -18 2 -29q2 -23 -4 -37q-10 -35 -48 -41q-29 -4 -51 18q-18 18 -24 56q-4 20 -6 55q-3 34 -3 82q0 24 1 51q-6 43 -7 45q-22 212 -22 379v14z" />
<glyph unicode="S" horiz-adv-x="1394" d="M88 367q-24 58 -24 117q0 112 88 225q12 18 34.5 21t41 -10t21.5 -35.5t-11 -41.5q-62 -83 -62 -161q0 -37 14 -74q45 -111 195 -164q238 -82 365 -84h5q182 0 275 143q50 74 50 145q0 22 -5 44q-16 82 -100 159q-76 72 -186.5 126t-215.5 83q-23 6 -46 9t-64 5 q-39 2 -60 5q-127 12 -194 65q-55 42 -82 110q-19 49 -19 98q0 20 3 40q23 123 119 198.5t227 100.5q59 11 118 11q63 0 129 -13q124 -25 207 -94q63 -53 97 -119q31 -66 53 -154q6 -23 -5.5 -42t-34 -25t-42 5t-25.5 34q-23 82 -45 127q-25 51 -67 88q-62 51 -162 71 q-52 11 -104 11q-49 0 -99 -9q-104 -20 -174 -74.5t-82 -136.5q-3 -13 -3 -25q0 -26 10 -52q16 -40 46 -64q45 -33 140 -41q10 -2 54 -4t75.5 -6t58.5 -12q115 -31 238 -90q123 -61 211 -146q109 -102 133 -217q7 -33 7 -66q0 -102 -67 -206q-126 -193 -366 -193h-10 q-141 2 -400 92q-197 70 -260 226z" />
<glyph unicode="T" horiz-adv-x="1290" d="M-8 1304v6q0 20 12 36q14 18 37 20q205 23 440 33q-2 20 8.5 37.5t28.5 25.5q9 2 17 2q15 0 27 -6q20 -10 28 -31q2 -12 6 -24q182 6 434 6q23 0 39 -16.5t16 -39t-16 -39t-39 -16.5q-236 0 -407 -4q40 -202 40 -488q0 -330 -53 -773q-4 -23 -22 -37q-14 -12 -32 -12 q-4 0 -8 1q-22 3 -36 20.5t-12 39.5q52 443 52 767q0 285 -40 478q-248 -10 -459 -35q-23 -2 -41 12.5t-20 36.5z" />
<glyph unicode="U" horiz-adv-x="1644" d="M135 1323q0 29 6 96q3 23 23 36q15 10 32 10q4 0 10 -1q22 -4 36 -23t10 -42q-6 -55 -6 -74.5t6 -73t8 -92.5l4 -84q4 -84 6 -112l9 -115q6 -84 13 -135t19 -123q14 -70 31 -129q55 -199 150 -285q69 -64 165 -65q44 0 93 14q76 20 141 125q63 94 113 252q61 197 96 459 v34q0 14 -1 45t-3 76t-4 78q-1 38 -1 68t1 53q2 70 16 98q6 10 12 17q23 20 51 16q25 -4 39 -27l9 -18q4 -14 6 -45v-111q0 -162 -8 -235l-9 -58q0 -20 -3 -78.5t-3 -95.5q-5 -91 -5 -168q0 -57 3 -106q8 -156 39 -252q33 -106 90 -139q8 -4 15.5 -6.5t23.5 -6.5l33 -8 q23 -8 33 -28q6 -11 6 -23q0 -9 -3 -19q-7 -22 -27 -32q-12 -6 -25 -6q-8 0 -17 2q-2 0 -21.5 5t-40 12t-34.5 15q-92 53 -139 201q-27 86 -37 211q-49 -145 -111 -242q-90 -137 -207 -170q-66 -19 -125 -19q-135 0 -237 97q-115 109 -180 334q-16 61 -31 137t-23 131.5 t-14 140.5t-8 117.5t-6 114.5t-4 84q0 20 -7.5 79.5t-7.5 88.5z" />
<glyph unicode="V" horiz-adv-x="1382" d="M8 1325q-4 10 -4 21q0 12 5 22q9 22 29.5 29.5t43.5 -0.5q4 -2 9 -4t11.5 -4.5t10.5 -2.5q31 -12 49 -26q51 -41 119 -172q53 -100 116 -258q10 -25 174 -457l58 -151l37 141q6 23 16 67q33 125 52.5 190.5t57 180.5t73.5 190.5t92.5 167t123.5 164.5q14 17 38 19h7 q20 0 34 -14q19 -18 18 -43q0 -20 -15 -35q-61 -68 -113.5 -152t-85 -155.5t-69.5 -181t-55.5 -174t-51.5 -191.5q-12 -49 -16 -62q-49 -184 -59 -278v-4q0 -4 1 -11.5t1 -17.5v-11q0 -49 -33 -73q-18 -13 -35 -13q-22 0 -41 21q-6 6 -10 16q-4 6 -6 19q-6 14 -15 41l-10 41 l-4 14v4q-10 33 -92 254l-172 453q-63 152 -115 250q-57 109 -90 135l-16 8q-37 12 -39 12q-21 10 -29 31z" />
<glyph unicode="W" horiz-adv-x="1996" d="M-10 1370q-4 11 -4 21q0 13 5 23q9 20 30.5 28t42 -1.5t28.5 -29.5q57 -147 113 -311l127 -371l104 -313q0 -4 8.5 -31t20.5 -61l22 -68l15 -37q4 18 8 43q2 6 4 16.5t2 15.5t2 7q27 121 68 249t102.5 294t83.5 237q66 193 72 207q23 66 39 98q10 25 18 37q10 12 23 21 q12 8 26 8h6q23 0 39 -16q10 -10 15 -23q0 -4 2 -8v-8v-11q2 -12 2 -32v-94q-1 -68 -1 -104t1 -40q14 -104 50 -209.5t99 -251.5q61 -137 90 -211l58 -145l6 -14q8 43 16 102l23 170l12 113q35 184 111.5 333.5t212.5 344.5q12 20 34.5 24t42 -9t23.5 -35q1 -5 1 -10 q0 -17 -11 -32q-129 -190 -201 -329.5t-102 -307.5q-4 -14 -15 -104q-14 -129 -20 -174q-16 -106 -31 -164q-10 -41 -20 -64q-25 -47 -66 -51q-20 -2 -39 12q-6 4 -11 10.5t-11 14.5q-6 12 -17 35q-16 33 -41 92l-57 147q-23 57 -86 203q-68 152 -106.5 267.5t-55.5 226.5 v20l-24 -76l-88 -239q-59 -164 -99.5 -287t-66.5 -242q0 -2 -1 -6t-2 -12t-4 -16q-6 -39 -14 -70q-10 -45 -22 -72q-8 -20 -21 -34q-22 -25 -52 -25h-9q-29 4 -51 37q-12 14 -23 39q-18 37 -41 102q-12 31 -24.5 67t-20.5 63.5t-10 29.5l-105 313l-123 369q-57 164 -112 309 z" />
<glyph unicode="X" horiz-adv-x="1308" d="M134 1392q6 22 24 36q13 10 28 10q6 0 12 -2q22 -6 35 -23q68 -98 199 -258q150 -178 203 -250l35 74q94 188 260 401q14 16 36.5 19.5t40 -11t20.5 -37t-11 -40.5q-162 -209 -248 -381q-25 -51 -59 -129q78 -111 209 -322t178 -280q8 -14 8 -29q0 -6 -1 -13 q-5 -22 -24.5 -35t-41 -8t-36.5 23l-165 264q-115 184 -181 281q-88 -197 -176 -337t-213 -232q-15 -10 -33 -10q-3 1 -7 1q-22 2 -36 20.5t-11 41t22 37.5q53 39 101 94t81 102t75 128t62.5 124t61.5 140l-29 38q-53 72 -205 256q-137 162 -205 267q-10 13 -10 29q0 5 1 11 z" />
<glyph unicode="Y" horiz-adv-x="1349" d="M95 1424q5 22 24.5 35.5t41.5 8t36 -23.5q221 -336 364 -645l55 -119q47 127 80 205t86.5 185.5t112.5 193.5l76 104l51 64q12 14 20 22q6 8 13 12l16 9q9 3 18 3q22 0 39 -18q10 -10 14 -22q4 -9 4 -15q0 -2 -1 -4v-8q-2 -6 -4 -10l-4 -8l-7 -13l-20 -34l-70 -107 q-106 -170 -147 -254q-115 -238 -163 -425q-38 -150 -38 -327q0 -44 2 -90q2 -23 -13 -39t-39 -18h-5q-21 0 -35 14q-16 15 -18 39q-2 48 -2 95q0 104 12 202q-10 8 -17.5 21.5t-9.5 34.5q-2 10 -2 16v8v4q-27 68 -102 234q-141 295 -361 628q-8 14 -8 29q0 7 1 13z" />
<glyph unicode="Z" horiz-adv-x="1388" d="M45 188q4 23 16 54q20 43 64 108q16 27 117 166l90 121q47 59 102 125l94 106l107 119l98 111l12 12l17 20q10 10 18 17q35 37 56 65q27 35 36 60q6 16 5 24q0 -4 -6.5 -2t-14.5 6l-8 5q-39 10 -107 14q-43 3 -92.5 3t-105.5 -3q-63 -2 -196.5 -16.5t-205.5 -16.5 q-23 0 -40 15.5t-17 38t15 40t38 17.5q68 2 197 16q137 12 205 17q60 3 112 3t97 -3q78 -4 129 -19q80 -20 102 -70q9 -22 9 -47q0 -30 -13 -63q-14 -39 -51 -86q-25 -33 -64 -74l-22 -22l-23 -25l-98 -111l-107 -118l-90 -107l-100 -121l-88 -116q-104 -143 -115 -160 q-35 -53 -51 -86q18 -1 43 -1t55 1q115 2 322 14q90 4 225 12.5t214 12.5t103 4q23 0 39.5 -16.5t16.5 -39t-16.5 -39t-39.5 -16.5q-25 0 -102.5 -4t-210.5 -12t-223 -12q-209 -12 -326 -15q-37 -1 -65.5 -1t-48.5 1q-25 2 -39 4q-29 4 -45 19q-24 22 -24 56q0 7 1 15z" />
<glyph unicode="[" horiz-adv-x="768" d="M2 -66q0 37 1 93.5t1 66.5v950q0 164 6 226q10 80 31 133q31 78 90 98q16 4 43 2q14 -2 35 -6q31 -6 86 -20l135 -35q23 -4 36 -22.5t10 -41t-21 -36t-41 -11.5q-10 2 -148 39q-51 12 -80 19q-16 4 -22 4q-10 -8 -21 -31q-14 -39 -22 -105q-6 -55 -6 -213v-950 q0 -10 -1 -66.5t-1 -93.5q0 -51 2 -86q2 -31 6 -43q10 -6 33 -10q43 -8 118 -4q47 2 134 10q84 8 100 9q23 0 40 -15.5t17 -38t-15.5 -40t-37.5 -17.5q-6 0 -92 -8q-82 -8 -142 -10q-90 -4 -141 6q-90 16 -115 71q-12 27 -16 82q-2 37 -2 94z" />
<glyph unicode="\" d="M-66 1420q7 22 27.5 32t42 2.5t31.5 -27.5q27 -51 100.5 -155.5t105 -173t62.5 -146.5l66 -180q35 -102 53 -147q102 -276 221 -435q12 -18 9 -40.5t-21.5 -36t-41 -10.5t-36.5 22q-127 170 -236 461q-18 47 -53 147l-63 174q-29 76 -62 146q-27 59 -94 155 q-80 111 -108 170q-10 20 -3 42z" />
<glyph unicode="]" horiz-adv-x="684" d="M-88 1301.5q-6 21.5 5 42t34 26.5q12 4 78 31q74 31 114 45q74 25 125 24q82 2 117 -55q45 -76 64 -262q14 -143 14 -369q0 -106 -5 -343.5t-1 -309.5q0 -18 8 -78q12 -94 14 -106q10 -154 -49 -217q-47 -51 -201 -88l-110 -25q-59 -12 -84 -20q-23 -6 -43.5 4 t-26.5 32.5t4.5 43t32.5 26.5q29 8 94 23q82 16 109 22q119 29 143 55q27 31 21 136q-4 35 -12.5 99t-10.5 89q-4 72 1 311.5t5 345.5q0 221 -14 357q-14 162 -47 217q-6 4 -21 2q-33 0 -92 -19l-108 -43q-68 -29 -90 -34q-20 -6 -41 5t-27 32.5z" />
<glyph unicode="^" horiz-adv-x="1069" d="M168 627q4 51 18.5 99t40.5 108l35 77q41 115 94 320l19 69q6 29 12 48q4 12 8 20q8 18 21 29q29 23 65.5 22.5t65.5 -22.5q18 -14 39 -60q14 -29 37 -84l90 -241l59 -166l55 -162q23 -59 33 -84q8 -20 0 -41.5t-29.5 -30t-43 0t-29.5 30.5q-10 23 -33 84l-57 164 l-58 168q-55 152 -90 235l-33 80h-2l-4 -20q-6 -18 -18 -68q-49 -197 -98 -328q-12 -37 -36 -90t-36 -89t-14 -77q-2 -23 -19.5 -38t-40 -13t-38 19.5t-13.5 40.5z" />
<glyph unicode="_" horiz-adv-x="1421" d="M79 -183.5q7 21.5 27.5 32t40.5 4.5q86 -29 184.5 -34t233.5 0t207 3q51 -2 183 -10.5t206 -8.5q23 0 39.5 -16t16.5 -38.5t-16.5 -39t-39.5 -16.5q-74 0 -208 8t-185 10q-53 2 -194.5 -3t-253 1t-205.5 37q-23 8 -33 28.5t-3 42z" />
<glyph unicode="`" horiz-adv-x="643" d="M73 1524.5q3 23.5 20.5 37t41 10t35.5 -21.5q51 -66 137 -190l121 -168q12 -18 9 -41t-21.5 -36t-41 -10t-36.5 21l-119 168l-135 191q-14 16 -11 39.5z" />
<glyph unicode="a" horiz-adv-x="1560" d="M22 514v12q0 106 41 206q43 104 117 181q125 135 285 136q133 -2 256 -107q14 12 33 14q29 2 47 -20q10 -12 14 -27v-20q0 -16 -2 -43v-10q2 -15 -4 -29q-4 -33 -8 -51q-8 -39 -21 -82q0 -100 10.5 -165t49.5 -122q48 -75 112 -101q35 -14 69 -15q28 0 56 10 q61 18 108.5 75.5t59.5 139.5q4 23 22.5 36t40.5 10q22 -4 36 -22q12 -16 12 -35v-6q-18 -113 -86 -194.5t-162 -110.5q-43 -14 -87 -14q-54 0 -108 22q-98 39 -168 144q-37 57 -55 127q-25 -45 -53.5 -85t-69.5 -80t-86 -62q-45 -24 -102 -36q-23 -5 -46 -4q-35 0 -71 11 q-51 12 -102 42.5t-80 73.5q-56 88 -58 201zM142 602q-8 -42 -9 -79q0 -84 41 -148q33 -51 113 -72q25 -6 49 -6q68 0 128 48q81 65 142 185q35 72 64 160v43v23v18q-2 31 2 51v13q-102 98 -207 100q-111 0 -205 -100q-92 -100 -118 -236z" />
<glyph unicode="b" horiz-adv-x="1323" d="M104 1206q0 9 -1 17q0 62 10 112q3 23 23 36q15 10 32 10q4 0 10 -1q22 -4 35.5 -23t9.5 -42q-10 -80 -10 -128q0 -11 1 -21q3 -50 15.5 -156.5t14.5 -167.5q2 -39 2 -80q10 20 22 39q66 105 164 159q95 53 194 52h8q104 -2 201 -42t170.5 -126t100.5 -195q13 -51 13 -99 q0 -61 -21 -118q-35 -102 -117 -184q-74 -74 -174 -122t-203 -63q-51 -7 -108 -7q-47 0 -97 5q-78 6 -125 25q-10 4 -20 10q-8 -20 -16 -37q-4 -8 -9 -12q-14 -18 -36 -22h-8q-33 0 -50 30q-4 8 -6 19.5t0 31.5q0 8 2 26t2 24q2 74 6 90v8l2 2v100q0 289 -8 482 q-2 41 -10 112l-12 127q-5 57 -7 129zM289 303q23 2 39 -12q18 -14 20 -37t-12 -41q-9 -11 -25 -23l4 -2q33 -12 95 -18q36 -2 71 -3q58 0 111 7q82 10 166 51t145 101q105 106 105 225q0 34 -9 70q-27 111 -108 182q-81 74 -177 92q-31 6 -63 6q-65 1 -131 -25 q-98 -38 -158 -133q-39 -63 -53 -141q-14 -76 -16 -188q-2 -104 -4 -111z" />
<glyph unicode="c" horiz-adv-x="1202" d="M60 548q-1 19 -1 39q0 124 52 261q35 90 108.5 171t163.5 120q65 31 131 32h2l130 -35q66 -36 114 -112q14 -25 26.5 -54.5t17.5 -47t13 -54.5t10 -43q6 -23 -5 -42t-33.5 -25t-42 5t-25.5 34q-4 14 -12.5 47t-12.5 47t-12 35.5t-18 36.5q-61 97 -149 97q-42 0 -89 -22 q-70 -31 -128 -95t-87 -136q-43 -113 -44 -216q0 -18 2 -36q9 -119 58.5 -210t127 -144.5t165.5 -59.5q8 -1 17 -1q81 0 173 52q102 58 185 183q12 18 34.5 23t40.5 -8q19 -14 24 -36q1 -6 1 -11q0 -16 -10 -30q-98 -147 -223 -219q-112 -64 -220 -64q-12 0 -24 1 q-119 8 -225 80q-100 68 -164 180q-61 115 -71 257z" />
<glyph unicode="d" horiz-adv-x="1468" d="M140 660q58 220 194 321q70 52 159 52h10q95 -3 187 -77q35 -28 70 -71v4q-5 134 -5 240q0 53 1 100q6 170 32 227q2 6 7 10q14 20 36 25q6 1 11 1q34 0 49 -34q4 -10 5 -19t1 -30q-4 -43 -4 -45q0 -16 3 -52t3 -55q1 -50 1 -101q0 -102 -5 -206q-6 -117 -16 -215l2 -47 q14 -25 4 -49q16 -223 30 -299q41 -188 93 -242q20 -23 47 -16q45 8 114 80q14 16 38 16t40.5 -15.5t16.5 -39t-17 -39.5q-92 -94 -170 -111q-19 -4 -36 -4q-63 0 -113 51q-74 76 -119 299q-4 16 -8 41q-41 -121 -99 -194q-92 -119 -222 -119h-13q-117 6 -195.5 65.5 t-119.5 155.5q-38 94 -38 203q0 90 26 189zM246 633q-22 -85 -21 -160q0 -88 29 -164q59 -143 217 -151h8q77 0 135 75q61 78 103 228q25 94 43 215q-4 8 -19 33l-20 32l-16 29q-12 20 -21 29l-16 24q-12 16 -25 27l-22 20q-67 53 -129 53q-48 0 -93 -32q-106 -76 -153 -258 z" />
<glyph unicode="e" horiz-adv-x="1517" d="M213 723q16 104 82 195q68 92 164 147q98 57 205 63q10 1 19 0q95 0 194 -53q33 -20 75 -65q51 -53 64 -92q10 -34 10 -68q0 -81 -59 -158q-68 -90 -195 -145q-123 -55 -240 -55q-137 0 -206 79q-3 5 -7 7q12 -115 62 -226q47 -100 127 -162q80 -60 169 -76q42 -7 84 -8 q48 0 97 10q92 18 167 65.5t124 126.5t53 171q2 23 18.5 39.5t39 14t38.5 -18.5q15 -14 15 -34q-1 -116 -69 -226q-62 -100 -156 -162q-92 -60 -208 -84q-62 -13 -123 -13q-53 -1 -105 9q-112 20 -212 98t-157 205q-77 164 -77 322q0 47 7 94zM334 752q29 -4 41 -33 q6 -10 12 -27l2 -8q4 -10 6 -14q6 -18 13 -25q37 -43 124 -43q94 0 194.5 45t152.5 113q35 45 35 90q0 17 -5 35q-4 14 -36.5 49t-53.5 47q-66 37 -137 37h-14q-78 -4 -154 -49q-137 -82 -180 -217z" />
<glyph unicode="f" horiz-adv-x="806" d="M-165 916q3 22 21.5 35.5t41.5 11.5q48 -7 101 -7q26 0 54 2q0 264 39 428q35 150 125 199q31 18 64 18q29 0 59 -14q57 -27 106 -104q59 -94 84 -279q2 -23 -11 -40t-36.5 -20t-41 10t-21.5 38q-20 158 -68 233q-31 49 -57 62q-14 6 -25 0q-47 -27 -71 -127 q-35 -147 -35 -391q20 2 47 6q12 2 75.5 13t90 15.5t77 9.5t91.5 7q23 0 40 -15.5t17 -38t-15.5 -40t-37.5 -17.5q-74 -2 -322 -43q-35 -6 -63 -10q2 -84 9 -233.5t9 -198.5q2 -92 19 -260q4 -45 6 -72q31 -16 31 -45q0 -8 -2 -16v-6v-23q0 -23 -9 -39q-17 -36 -54 -36 q-7 0 -15 1q-20 4 -33 21l-8 12l-4 12q-2 6 -4 15q-2 14 -5 41q-6 47 -14 125q-14 170 -18 266l-9 192q-6 145 -8 234q-35 -2 -68 -2q-55 0 -106 6q-23 4 -36 22q-11 16 -11 33q0 4 1 9z" />
<glyph unicode="g" horiz-adv-x="1110" d="M80 397q-4 36 -4 72q0 168 78 334q43 96 109.5 167.5t146.5 96.5q43 15 86 15q120 0 235 -117v10q0 27 4 43t13 29q10 14 26 20q12 4 23 4t22 -4q25 -10 33 -39q4 -8 4 -20q2 -16 2 -43q1 -14 1 -32q0 -34 -3 -81l-8 -111q4 -66 10 -131q4 -57 18.5 -174t21.5 -198.5 t8 -187.5v-10q0 -100 -18 -192q-18 -98 -57 -184q-104 -227 -276 -244q-12 -1 -24 -1q-135 0 -244 128q-104 120 -104 255q0 12 1 24q8 154 152 223q-29 6 -60 21q-172 90 -196 327zM190 410q18 -178 140 -242q21 -12 44 -12q32 0 68 24q66 43 133 152q59 92 101 200 q45 109 59 170q0 16 2 41q-2 43 -4 82q-29 1 -45 21q-100 125 -196 125q-24 0 -48 -8q-113 -37 -190 -207q-67 -143 -67 -288q0 -29 3 -58zM295 -180v-15q0 -97 76 -186t160 -89q7 0 14 1q109 10 184 178q35 78 51 158t16 175v6q-1 99 -5 165q-4 35 -21 184q-4 38 -6 54 q-43 -96 -96 -179q-82 -127 -164 -184q-33 -23 -68 -33q10 -10 17 -24q6 -20 -4.5 -41t-32.5 -29q-115 -37 -121 -141z" />
<glyph unicode="h" horiz-adv-x="1130" d="M78 1303v6q0 19 12 34q14 17 38 19h6q20 0 35 -12q17 -14 19 -39q18 -219 29 -498q12 31 27 53q43 76 118.5 131.5t161.5 73.5q39 9 76 10q54 0 106 -20q88 -33 140 -127q33 -61 52.5 -141t22.5 -135.5t5 -141.5v-24q0 -157 -23 -418q-2 -25 -19.5 -39.5t-41 -12 t-37.5 19.5t-12 40q22 241 22 398v36q-2 123 -14 209q-12 84 -53 156q-50 90 -146 90q-25 0 -53 -6q-63 -14 -120.5 -56.5t-90.5 -95.5q-59 -106 -94 -371q-10 -84 -17 -155v-94q-2 -100 -4 -146q0 -29 -2 -37q0 -6 -2 -10q-4 -14 -14 -23q-16 -14 -36 -14h-5q-23 0 -37 17 q-8 8 -12 20q-2 4 -2 8q0 2 -2 6v17q-1 32 -1 67q0 88 7 193q0 35 -2 97.5t-2 111.5q-10 528 -35 803z" />
<glyph unicode="i" horiz-adv-x="434" d="M55 1433.5q0 22.5 16.5 39t39 16.5t39 -16.5t16.5 -39t-16.5 -39t-39 -16.5t-39 16.5t-16.5 39zM63 1004q-2 7 -2 14q-1 12 7 26q12 20 34 27q8 2 15 2q15 0 27 -7q20 -11 26 -34q33 -119 47 -262q14 -145 14 -248.5t-5 -273.5t-5 -244q0 -23 -16.5 -39t-39 -16 t-38.5 16.5t-16 38.5q0 82 5 250t5 267.5t-13.5 235.5t-44.5 247z" />
<glyph unicode="j" horiz-adv-x="575" d="M-141 217v6q0 19 11 35q13 18 35.5 21.5t41 -10t22.5 -36.5q16 -109 60.5 -164t87.5 -59h7q36 0 70 34q39 38 54 128q12 89 12 183q0 56 -4 113q-12 153 -53 294l-29 86q-20 63 -34.5 116.5t-20.5 102.5q-2 23 12 40t36.5 20t40 -11t21.5 -37q4 -43 16.5 -88t33.5 -104 q20 -57 30 -96q43 -154 58 -314q5 -62 5 -123q0 -100 -14 -198q-20 -123 -90 -195q-60 -62 -139 -62q-12 0 -25 1q-90 10 -156.5 95t-88.5 222zM61 1347.5q0 22.5 16.5 39t39 16.5t39 -16.5t16.5 -39t-16.5 -39t-39 -16.5t-39 16.5t-16.5 39z" />
<glyph unicode="k" horiz-adv-x="976" d="M98 1452v5q0 20 14 35q16 17 38 19h5q19 0 35 -13q18 -15 19 -38q33 -395 41 -530l121 110l108 95l99 90q39 35 49 45q16 14 39.5 14t39 -16.5t15.5 -40t-16 -39.5q-12 -8 -52 -43l-100 -90l-109 -97l-147 -135q10 -2 18 -2q152 -25 269 -119q102 -84 145 -284 q14 -63 25 -160q16 -133 18 -137v-6q0 -19 -11 -35q-13 -18 -36 -21.5t-41 10t-22 35.5q0 6 -17 140q-12 90 -24 149q-35 166 -107 223q-94 76 -215 95q-12 2 -35 2q20 -336 21 -611q0 -23 -16.5 -39t-39 -16t-39 16.5t-16.5 38.5q0 285 -22 635q-16 18 -19 43q-2 16 6 33 q4 4 8 12z" />
<glyph unicode="l" horiz-adv-x="473" d="M94 1313q2 25 18 40q15 13 35 13h5q24 -2 39.5 -18t13.5 -39q-3 -52 -3 -121q0 -181 19 -486q2 -49 8 -139l9 -145q2 -57 10 -133t20 -140q1 -5 1 -11q0 -17 -10 -30q-13 -18 -35 -23q-6 -1 -13 -1q-15 0 -29 9q-18 13 -24 36q-14 84 -23.5 172t-15.5 227q-6 127 -8 170 q-20 312 -20 498q0 69 3 121z" />
<glyph unicode="m" horiz-adv-x="1703" d="M84 979q0 23 17.5 38t40 15t38 -17t15.5 -40v-44q0 -70 4 -163q0 -20 4 -82.5t4 -95.5q61 193 196 311q59 49 147 80q53 19 103 18q32 1 62 -7q76 -20 121 -111q18 -35 32 -84q27 55 62 104q98 137 211 148q10 1 20 1q91 0 170 -83q70 -72 115 -187q43 -115 51 -215 q2 -32 2 -68q0 -201 -67 -515q-4 -23 -23.5 -35.5t-42.5 -7t-35 25t-6 41.5q63 296 63 482q0 37 -2 69q-6 84 -43.5 180.5t-91.5 151.5q-47 49 -93 49h-7q-61 -6 -131 -102q-84 -115 -113 -283q4 -41 8 -137v-217v-11q0 -8 1.5 -17t1.5 -15v-21q0 -6 -3 -10q-2 -10 -8 -21 q-14 -20 -37 -24q-29 -4 -47 16l-14 21q-2 4 -2 6q0 4 -2 8q-21 130 -21 248q0 93 13 178q-6 78 -19 137q-14 86 -41 137q-25 45 -51 54q-14 3 -30 3q-32 0 -74 -14q-62 -20 -105 -59q-66 -55 -108.5 -128t-64 -164t-30 -169t-12.5 -188v-19v-45q0 -25 -2 -45q-2 -47 -4 -77 q-2 -18 -6 -33q-4 -23 -14 -37q-18 -27 -50 -27q-37 0 -53 37q-6 12 -8 37v27q-2 14 -2 18q-4 35 -12 246q-10 289 -13 305q-2 31 -3 66.5t-4 77.5t-3 67q-4 97 -4 169v46z" />
<glyph unicode="n" horiz-adv-x="1128" d="M113 971q-2 8 -2 15q0 14 8 27q12 19 34.5 24t42 -7t23.5 -35q31 -133 39 -303q12 57 31 105q97 258 324 258h3q129 -2 207 -148q57 -109 84 -291q18 -149 17 -283v-33q-2 -148 -21 -234q-3 -24 -23 -36q-14 -9 -29 -8q-7 0 -13 2q-22 6 -34.5 25t-6.5 41q14 74 17 212 v36q0 122 -17 262q-23 164 -70 254t-111 90h-3q-151 0 -220 -186q-39 -104 -67 -369q-14 -127 -17 -141q-8 -55 -14 -90q-6 -23 -12 -37q-12 -33 -39 -43q-12 -5 -24 -5q-23 0 -42 19q-10 10 -16 29q-4 14 -8 41q-4 39 -4 108q0 45 1 121t1 84q0 317 -39 496z" />
<glyph unicode="o" horiz-adv-x="1185" d="M100 543q-2 29 -2 57q0 160 68 274q92 158 267 158h9q105 -2 187 -57q199 -45 291 -199q64 -106 64 -235q0 -53 -11 -109q-16 -86 -57.5 -165t-100.5 -141t-142 -94q-63 -24 -129 -24q-21 0 -42 2q-121 16 -212 102.5t-135 197t-55 233.5zM211 551q12 -168 95 -291 t208 -139q17 -2 34 -2q102 0 188 84q100 98 128 250q9 46 9 88q0 99 -48 178q-14 23 -30 43q-6 -20 -23 -31q-18 -14 -40.5 -10t-35.5 24q-63 88 -112 127q-8 2 -17 2q-29 6 -41 31q-39 14 -88 17h-4q-114 0 -174 -103q-51 -89 -51 -216q0 -25 2 -52z" />
<glyph unicode="p" horiz-adv-x="1226" d="M90 958q0 23 16.5 39.5t39 16.5t39 -16.5t16.5 -39.5q0 -39 14 -102q16 -74 21 -100q37 63 101 126.5t138 106.5q106 62 197 62q83 0 153 -52q80 -59 133 -200q41 -109 56 -219q8 -66 8 -120q0 -60 -10 -104q-18 -90 -96 -179t-179 -142q-70 -39 -141 -53q-27 -5 -54 -5 q-45 0 -90 13q-75 22 -128 88q-20 25 -31.5 53.5t-15 46t-6.5 52t-5 40.5q-2 25 11.5 42.5t37 20.5t41 -10.5t21.5 -35.5q2 -23 4 -51l4 -39q2 -8 8 -21.5t17 -28.5q45 -55 118 -58h9q68 0 147 42q84 45 145.5 115.5t75.5 134.5q6 28 6 70q0 49 -8 116q-10 98 -47 193 q-41 111 -96 149q-40 29 -90 29q-62 0 -140 -45q-63 -35 -117.5 -90t-84.5 -107q-68 -115 -72 -348v-20q0 -154 29 -363q2 -18 10 -64t11 -83q2 -22 2 -47q0 -16 -1 -33q-2 -12 -2 -19q-2 -6 -4 -10q-6 -25 -33 -33q-12 -4 -22 -4q-27 0 -43 27q-4 8 -6 14q-2 10 -7 37 q-6 82 -12 115q-33 231 -37 330q-2 61 -4 270q-2 178 -10 260q-2 25 -21 109q-16 74 -16 124z" />
<glyph unicode="q" horiz-adv-x="1437" d="M92 682q33 197 137 307q87 92 195 92q51 0 106 -20q137 -49 220 -166v31v24v2v29v4v2v4v2v4q2 6 4 15q15 32 49 32h6q35 -2 47 -34l4 -17v-2v-2v-4v-4v-6v-12v-13v-2q2 -94 23 -397q20 -295 22 -438v-31q80 147 236 287q16 16 39.5 14t39.5 -19q13 -14 13 -34v-6 q-2 -23 -19 -37q-242 -217 -286 -475q-2 -2 -2 -7l-2 -20l-6 -66q-4 -41 -9 -63q-2 -16 -2 -25q-2 -6 -2 -10q-2 -10 -6 -18q-6 -10 -16 -19q-16 -13 -33 -13q-13 0 -27 7q-18 8 -26 29q-4 6 -4 12q-2 12 -5 33v108q0 55 3.5 173t3.5 180q-1 127 -15 313q-43 -102 -98 -182 q-126 -179 -268 -179q-43 0 -88 17q-152 55 -213 246q-33 102 -33 215q0 67 12 139zM200 664q-10 -63 -10 -121q0 -96 27 -181q45 -141 145 -178q23 -8 45 -8q91 0 183 131q49 72 86 159t53 155q14 70 19 122h-8q-34 0 -48 31q-66 135 -198 184q-33 12 -63 12 q-68 0 -122 -57q-82 -86 -109 -249z" />
<glyph unicode="r" horiz-adv-x="843" d="M92 890q-1 13 -1 31q0 36 3 95q2 23 20 37q16 12 36 12h6q22 -2 36.5 -20t12.5 -41q-3 -26 -3 -57q0 -54 9 -124q114 196 327 196q25 0 52 -3q23 -2 37 -20q12 -16 12 -36v-6q-2 -22 -20.5 -36.5t-40.5 -12.5q-19 2 -37 2q-167 0 -250 -166q-37 -76 -53 -178v-139 q0 -45 -7 -195q2 -35 5 -53q4 -44 4 -82q0 -57 -9 -100q0 -8 -2 -12q-4 -10 -10 -17q-16 -18 -41 -18h-4q-22 0 -39 18q-6 6 -8 15q-4 6 -6 12q-2 10 -2 31q-2 41 -2 112q0 39 2 90q-8 74 -8 111q-1 22 -1 44q0 99 15 189q0 25 -6 84q-2 27 -13.5 113t-13.5 124z" />
<glyph unicode="s" horiz-adv-x="1073" d="M12 729q-18 45 -18 87q0 44 20 85q39 80 119 135q72 49 156 76q64 20 119 20q18 0 36 -2q115 -14 213 -131q14 -16 59.5 -76.5t74.5 -86.5q16 -16 18 -39t-14.5 -39.5t-39 -18t-38.5 14.5q-25 23 -49 53l-54 70q-29 37 -41 51q-70 84 -141 92q-11 1 -22 1q-40 1 -92 -15 q-66 -20 -121 -60q-91 -64 -91 -133q0 -21 9 -43q16 -41 90 -65q25 -8 201 -46q70 -14 119.5 -29.5t112 -45t111 -80.5t78.5 -119q41 -92 41 -179v-16q-4 -94 -57 -159q-55 -65 -149 -83q-32 -6 -66 -7q-65 0 -137 22q-100 31 -195.5 103.5t-159.5 160.5q-12 18 -9 41 t21.5 36t41 10t37.5 -21q53 -76 134 -137.5t163 -85.5q63 -18 111 -19q80 0 122 51q35 40 35 99.5t-35 138.5q-41 94 -123 139t-217 72q-180 37 -215 47q-123 41 -158 131z" />
<glyph unicode="t" horiz-adv-x="860" d="M-137 960q2 22 20 37t41 13q33 -3 70 -4q73 0 160 14q2 23 4 41q1 16 1 34q0 86 -30 236q-4 23 9.5 41.5t35.5 23.5q6 1 12 1q16 1 29 -9q18 -14 25 -36q30 -160 30 -256q0 -23 -2 -43v-11q225 49 330 54q23 0 40 -15.5t17 -38t-15 -40t-38 -17.5q-33 0 -62.5 -3 t-72.5 -11t-58.5 -10.5t-74 -15.5t-62.5 -13l-18 -4l-16 -107q-23 -156 -31 -243q-5 -57 -4 -109q0 -198 69 -315q12 -20 6 -42t-26 -34q-13 -8 -26 -8q-6 0 -14 2q-22 6 -34 24q-86 144 -86 380q0 54 4 112q6 72 33 250l10 69q-79 -12 -150 -12q-40 0 -77 4q-23 3 -37 21 q-12 16 -12 35v5z" />
<glyph unicode="u" horiz-adv-x="1394" d="M55 1067v6q1 20 13 35q14 18 36 20h6q20 0 36 -12q18 -14 20 -37q6 -53 21.5 -154.5t21.5 -150.5q2 -23 6 -103.5t13.5 -167.5t25.5 -161q29 -129 76 -184q30 -33 71 -32q20 0 43 7q35 14 70 76q33 59 61 160q18 55 30.5 114.5t26 133t15.5 75.5q2 16 8.5 46t7.5 38 t5 27.5t7 28t9 24.5l8 35q6 16 17 41v10l4 14l4 21q6 25 14 39q17 27 47 27q5 0 10 -1q29 -4 46 -30q20 -35 24 -97q0 -11 1 -24q0 -38 -5 -90l-14 -127q-10 -92 -15 -144q-5 -66 -5 -119q0 -81 11 -135q23 -104 91 -137q31 -13 57 -13q16 0 31 5q37 12 86 62q18 14 40.5 14 t38 -17.5t15.5 -40t-16 -38.5q-70 -63 -130 -84q-33 -11 -66 -11q-50 0 -101 25q-119 53 -152 211q-15 65 -15 151q0 19 1 39q-14 -57 -29 -104q-33 -113 -72 -184q-55 -96 -129 -123q-46 -17 -88 -17q-84 0 -147 72q-66 74 -101 231q-16 76 -26 171.5t-14.5 178.5t-6.5 95 q-6 49 -21.5 150.5t-21.5 154.5z" />
<glyph unicode="v" horiz-adv-x="1011" d="M28 1052q16 14 34 13h6q22 -2 36 -18q188 -215 320 -598l31 -99q18 49 63 203q35 121 55 180q20 66 58.5 158t75.5 141q14 18 36.5 21.5t41 -10t21.5 -35.5q1 -4 1 -9q0 -17 -10 -32q-70 -94 -174 -445q-57 -190 -70 -225q-18 -49 -37 -78q-32 -49 -75 -49h-3 q-23 2 -37 16l-8 9l-4 8q-2 4 -4 10q-4 8 -8 25l-25 67l-35 107q-121 365 -294 561q-15 16 -15 37q1 25 20 42zM487 252h2l-2 2v-2z" />
<glyph unicode="w" horiz-adv-x="1525" d="M-38 1022q7 22 26.5 32.5t42 3t32.5 -27.5q23 -45 87 -127q68 -92 96 -143q43 -84 96 -252l59 -191q12 -33 43 -98l17 -37l2 2q14 23 37 103q16 68 41 182l34 193q20 106 33 147l35 119l14 45l7 14q0 2 1 5t3 5q2 4 4 7q2 6 8 10q16 16 40.5 14t41.5 -20q4 -6 8 -15 q6 -10 12 -24l23 -70q23 -74 59 -205l94 -360q10 37 21 80q2 8 5 26.5t7 34.5l8 37q35 156 76 264q43 117 142 322q7 23 29 30q9 3 19 3l25 -5q22 -10 28 -32q3 -9 3 -17q0 -12 -6 -24q-94 -205 -137 -318q-37 -98 -72 -248q-4 -18 -7 -35.5t-7 -33.5l-7 -27 q-10 -53 -24 -100q-20 -61 -35 -86q-20 -35 -47 -47q-16 -6 -32 -6q-28 0 -54 20q-33 27 -35 78v14v8v4v5l-100 385l-37 133l-6 -19q-10 -39 -31 -139l-35 -192q-25 -119 -43 -191q-27 -96 -53 -135q-20 -31 -33 -43q-32 -33 -70 -33h-8q-23 2 -39 19q-4 4 -10 12 q-8 10 -16 26q-14 27 -33 68q-33 70 -45 109q-16 43 -62.5 195.5t-89.5 230.5q-23 45 -86 129q-68 92 -96 145q-6 11 -6 23q0 9 3 18z" />
<glyph unicode="x" horiz-adv-x="1024" d="M63 961q-4 10 -4 20q1 11 5 21q8 22 28.5 31t42 1t31.5 -28q27 -61 129 -148q121 -104 158 -147l12 22q31 53 98 148q70 98 96 141q12 20 35 26q7 2 14 1q14 -1 28 -9q20 -12 25 -34.5t-7 -40.5l-101 -148q-70 -100 -94 -141l-37 -64q33 -57 115 -213q98 -186 168 -266 q14 -16 14 -36q1 -25 -19 -43q-16 -14 -35 -13h-5q-22 2 -37 18q-84 96 -184 289l-80 154q-125 -215 -236 -322q-18 -14 -40.5 -14t-38 17.5t-15.5 40t16 38.5q49 45 96.5 108.5t73.5 108.5l76 129l-12 17q-10 14 -22.5 28.5t-32 33t-28.5 25.5t-38 31.5t-35 28.5 q-121 104 -160 189z" />
<glyph unicode="y" horiz-adv-x="1009" d="M49 930q-2 7 -2 14q0 15 9 28q12 19 34.5 24t42 -7t23.5 -35q55 -262 123 -452q53 -150 102 -228q50 -77 87 -77h1q20 0 51 47q37 53 72 149q51 141 78 299q2 8 4 19v4q0 188 14 237q4 10 6 17l6 12q10 14 27 20q13 6 26 6q21 0 38 -18q8 -10 12 -24q2 -8 4 -21 q0 -23 -4 -78q-6 -82 -19 -164q0 -113 3.5 -341t3.5 -345v-36v-58q0 -25 -1.5 -57.5t-4.5 -61t-9 -47.5q-35 -121 -142 -186q-102 -62 -211 -62h-13q-129 6 -201 89q-64 70 -64 174q0 34 7 71q4 23 23.5 36t42 9t35.5 -23.5t9 -41.5q-5 -27 -5 -51q0 -62 34 -101 q41 -47 123 -51h13q77 0 145 43q75 47 98 123q10 37 10 231q0 111 -2 293q-31 -78 -66 -127q-63 -94 -143 -96h-3q-94 0 -177 127q-59 90 -115 252q-68 197 -125 465z" />
<glyph unicode="z" horiz-adv-x="1142" d="M80 264q4 14 16 33q14 23 43 61q35 45 72 86q20 23 201 193q150 141 209 219q35 47 45 76q2 8 2 10q-18 12 -70 12q-76 0 -209 -24q-133 -29 -211 -64q-23 -10 -44 -3t-30.5 28.5t-2 43.5t27.5 30q88 43 240 71q134 29 220 29h11q96 -2 141 -39q36 -33 36 -81 q0 -21 -7 -44q-14 -49 -61 -113q-66 -84 -222 -231q-180 -170 -194 -186q-37 -41 -68 -80l-6 -8h27q84 -2 235 -2q74 2 166 3t155.5 2t80.5 1q23 0 39 -16.5t16 -39t-16.5 -39t-38.5 -16.5q-16 0 -79 -1t-155 -2t-168 -3q-152 0 -237 2q-53 0 -82 2q-16 2 -29 4q-8 0 -14 2 q-16 6 -29 21q-15 17 -15 38q0 12 5 25z" />
<glyph unicode="{" horiz-adv-x="954" d="M-68 438q-10 41 0.5 74t40.5 53q14 12 95 39q47 16 69 39q35 35 41 102q6 43 -2 189q-8 152 0 231q16 137 86 205q86 84 250 62q23 -4 36 -22.5t10 -41t-21 -36t-41 -11.5q-109 16 -158 -31q-41 -41 -51 -137q-8 -66 0 -213q8 -154 2 -207q-12 -106 -72 -168 q-41 -41 -115 -65q-61 -23 -65 -25q0 -4 2 -8q4 -8 29 -31q18 -18 79 -67q135 -109 164 -172q27 -55 35 -166q0 -8 2 -72q4 -63 8 -98q10 -86 35 -125q29 -43 88 -47q51 -4 84 13t94 71q18 16 41 14t38.5 -19.5t13.5 -40t-19 -36.5q-39 -35 -54 -47.5t-52 -34t-74 -27.5 q-37 -8 -80 -4q-115 10 -172 96q-41 61 -53 174q-4 33 -7 101.5t-3 75.5q-6 90 -23 127q-18 39 -135 131q-63 51 -86 71q-49 47 -60 84z" />
<glyph unicode="|" horiz-adv-x="485" d="M106 1458q0 23 17.5 38t40 15t38 -17t15.5 -40q-4 -117 10 -307q23 -287 23 -318q2 -66 2 -202q0 -137 5 -235.5t24 -190.5q4 -23 -9.5 -41.5t-36 -23.5t-41 8.5t-24.5 35.5q-16 96 -22.5 202.5t-6.5 248.5q0 135 -2 194q-2 72 -20 312q-16 213 -13 321z" />
<glyph unicode="}" horiz-adv-x="935" d="M-42 1466.5q5 22.5 24.5 34.5t42.5 6q225 -49 319 -184q90 -129 82 -360q0 -20 -4 -63.5t-6 -55.5q-4 -63 4 -99q10 -39 47 -59q33 -18 108 -41q86 -25 115 -47q35 -27 41 -66q4 -37 -16 -79q-31 -66 -97 -138q-66 -74 -126 -114q-20 -12 -60 -31q-41 -18 -51 -23 q-45 -25 -53 -51q-18 -53 -2 -135q2 -14 14 -74q12 -47 14 -75q10 -100 -51 -162q-63 -63 -223 -88q-23 -2 -41.5 11t-21.5 35.5t10.5 41t35.5 22.5q123 18 162 58q25 23 19 71q-2 23 -11 64q-14 61 -18 78q-18 106 6 186q23 72 107 115q14 8 59 28q31 12 43 23 q49 31 104.5 93.5t81.5 113.5q2 6 5 10q-12 8 -74 27l-51 14q-14 4 -51 20.5t-57.5 33t-43 47t-31.5 67.5q-12 49 -6 131q0 14 4 54t4 61q6 197 -61 293q-70 100 -254 141q-23 4 -35 23.5t-7 42z" />
<glyph unicode="~" horiz-adv-x="1327" d="M53 382q-8 22 0 42q102 227 244 264q111 27 262 -61l115 -74q68 -45 106 -64q102 -51 168 -16q33 16 44.5 52t19.5 112q2 23 20.5 37t41 12t36.5 -20.5t12 -40.5q0 -4 -2 -13q-4 -39 -8 -61.5t-15.5 -60t-36 -66.5t-59.5 -49q-117 -61 -270 14q-45 23 -117 72l-110 69 q-113 66 -178 50q-92 -23 -170 -201q-10 -20 -32 -28.5t-42.5 0.5t-28.5 31z" />
<glyph unicode="&#xad;" d="M80 535.5q-6 21.5 5 42t34 26.5q92 27 243 27q195 -2 232 2q23 2 40 -12.5t19 -38t-12 -41t-39 -19.5q-41 -4 -240 -2q-137 0 -215 -22q-20 -6 -40.5 5t-26.5 32.5z" />
<glyph unicode="&#x2000;" horiz-adv-x="813" />
<glyph unicode="&#x2001;" horiz-adv-x="1626" />
<glyph unicode="&#x2002;" horiz-adv-x="813" />
<glyph unicode="&#x2003;" horiz-adv-x="1626" />
<glyph unicode="&#x2004;" horiz-adv-x="542" />
<glyph unicode="&#x2005;" horiz-adv-x="406" />
<glyph unicode="&#x2006;" horiz-adv-x="271" />
<glyph unicode="&#x2007;" horiz-adv-x="271" />
<glyph unicode="&#x2008;" horiz-adv-x="203" />
<glyph unicode="&#x2009;" horiz-adv-x="325" />
<glyph unicode="&#x200a;" horiz-adv-x="90" />
<glyph unicode="&#x2010;" d="M80 535.5q-6 21.5 5 42t34 26.5q92 27 243 27q195 -2 232 2q23 2 40 -12.5t19 -38t-12 -41t-39 -19.5q-41 -4 -240 -2q-137 0 -215 -22q-20 -6 -40.5 5t-26.5 32.5z" />
<glyph unicode="&#x2011;" d="M80 535.5q-6 21.5 5 42t34 26.5q92 27 243 27q195 -2 232 2q23 2 40 -12.5t19 -38t-12 -41t-39 -19.5q-41 -4 -240 -2q-137 0 -215 -22q-20 -6 -40.5 5t-26.5 32.5z" />
<glyph unicode="&#x2012;" d="M80 535.5q-6 21.5 5 42t34 26.5q92 27 243 27q195 -2 232 2q23 2 40 -12.5t19 -38t-12 -41t-39 -19.5q-41 -4 -240 -2q-137 0 -215 -22q-20 -6 -40.5 5t-26.5 32.5z" />
<glyph unicode="&#x2013;" horiz-adv-x="1304" d="M80.5 535.5q-10.5 21.5 9 42t60.5 26.5q164 27 433 27q347 -2 413 2q40 2 70.5 -12.5t34 -38t-21.5 -41t-69 -19.5q-73 -4 -427 -2q-244 0 -383 -22q-36 -6 -72.5 5t-47 32.5z" />
<glyph unicode="&#x2014;" horiz-adv-x="2329" d="M84.5 535.5q-21.5 21.5 17.5 42t121 26.5q328 27 865 27q694 -2 826 2q82 2 142.5 -12.5t67.5 -38t-42.5 -41t-138.5 -19.5q-146 -4 -855 -2q-487 0 -765 -22q-71 -6 -144 5t-94.5 32.5z" />
<glyph unicode="&#x2018;" horiz-adv-x="569" d="M68 1053q-8 72 6 159q12 90 41 158q37 86 90 111q27 12 63 12h23h14q23 2 40 -13.5t19.5 -38t-13 -40t-38.5 -19.5h-26h-8h-11h-14q-18 -8 -37 -55q-25 -55 -36 -129t-3 -133q4 -45 17 -64h2q35 -6 36 -6q23 -6 34.5 -25.5t5 -42t-26 -33.5t-41.5 -5q-4 0 -6 1t-7.5 1 t-13.5 2q-35 6 -55 25q-45 41 -55 135z" />
<glyph unicode="&#x2019;" horiz-adv-x="573" d="M82.5 1362q8.5 21 28.5 31q4 0 7 2t10 6t13 8q37 16 62 29q41 16 69 22q23 4 43 0q35 -10 50 -41q8 -20 4 -55q-2 -23 -9 -55q-12 -53 -34 -138l-27 -90q-16 -51 -25.5 -84.5t-13.5 -44.5q-4 -23 -23.5 -35t-42 -7t-35 24.5t-5.5 42.5q2 12 12 47l27 86l26 90 q23 82 33 131l2 8l-6 -4q-23 -8 -55 -24q-35 -18 -37 -21q-23 -8 -43.5 0t-29.5 29.5t-0.5 42.5z" />
<glyph unicode="&#x201c;" horiz-adv-x="813" d="M-16 1071q-10 78 8 158q16 78 73.5 150.5t149.5 105.5q20 8 42 -1t29 -30.5t-2 -43.5t-32 -28q-90 -33 -131 -117.5t-29 -177.5q12 -82 51 -106q31 -23 84 23q16 14 40 12t38 -19.5t12 -41t-20 -37.5q-115 -96 -215 -29q-82 53 -98 182zM311 1147q12 86 66 176 q53 88 125 147q16 14 39.5 12.5t38 -19t12 -41.5t-20.5 -38q-55 -45 -98 -116.5t-53 -137.5q-8 -63 18 -100q35 -45 123 -55q23 -4 36 -21.5t10 -41t-20.5 -37t-41.5 -11.5q-133 18 -195 101q-55 74 -39 182z" />
<glyph unicode="&#x201d;" horiz-adv-x="761" d="M10 950.5q-4 22.5 10 42.5q57 80 93 207q16 66 14 113q-2 37 -21 51q-2 0 -8 2h-4q-2 0 -6 1t-6 1q-12 2 -23 4q-23 4 -35 23.5t-6.5 42t24.5 35t42 6.5q4 0 12 -2l19 -2q35 -4 57 -23q59 -43 66 -133q4 -63 -19 -148q-39 -145 -108 -243q-12 -18 -35 -22.5t-42.5 9 t-23.5 36zM361.5 972.5q-5.5 22.5 9.5 41.5q66 100 73 166q10 74 -45 161q-12 18 -7 41t24.5 35.5t42.5 7t35 -25.5q76 -119 61 -234q-12 -90 -94 -213q-12 -18 -35 -23t-41 8t-23.5 35.5z" />
<glyph unicode="&#x202f;" horiz-adv-x="325" />
<glyph unicode="&#x205f;" horiz-adv-x="406" />
<glyph unicode="&#x25fc;" horiz-adv-x="1044" d="M0 0v1044h1044v-1044h-1044z" />
</font>
</defs>
</svg>
